<svg xmlns="http://www.w3.org/2000/svg" xmlns:xlink="http://www.w3.org/1999/xlink" width="40" zoomAndPan="magnify" viewBox="0 0 30 30.000001" height="40" preserveAspectRatio="xMidYMid meet" version="1.0"><defs><clipPath id="17333cff51"><path d="M 0.484375 3 L 29.515625 3 L 29.515625 26.109375 L 0.484375 26.109375 Z M 0.484375 3 " clip-rule="nonzero"/></clipPath><clipPath id="f550ebd9ae"><path d="M 27 17 L 29.515625 17 L 29.515625 26 L 27 26 Z M 27 17 " clip-rule="nonzero"/></clipPath></defs><g clip-path="url(#17333cff51)"><path fill="#000000" d="M 15.820312 17.125 C 15.894531 17.058594 16.160156 16.917969 16.242188 17.035156 C 16.257812 17.054688 16.273438 17.074219 16.292969 17.085938 C 16.449219 17.511719 16.621094 17.941406 16.800781 18.367188 C 16.785156 18.378906 16.769531 18.390625 16.757812 18.410156 C 16.707031 18.476562 16.664062 18.550781 16.601562 18.609375 C 16.554688 18.65625 16.492188 18.664062 16.425781 18.664062 C 16.191406 18.390625 16.042969 18.046875 15.808594 17.769531 C 15.765625 17.5625 15.746094 17.367188 15.738281 17.167969 C 15.769531 17.164062 15.796875 17.148438 15.820312 17.125 Z M 18.6875 15.46875 C 18.730469 15.425781 18.761719 15.347656 18.800781 15.292969 C 18.855469 15.34375 18.886719 15.4375 18.886719 15.5 C 18.890625 15.550781 18.890625 15.601562 18.894531 15.652344 C 18.894531 15.660156 18.808594 15.683594 18.789062 15.691406 C 18.785156 15.691406 18.777344 15.6875 18.773438 15.6875 C 18.675781 15.679688 18.625 15.539062 18.6875 15.46875 Z M 20.53125 22.574219 C 20.808594 22.34375 20.988281 22.027344 21.191406 21.738281 C 21.207031 21.710938 21.214844 21.683594 21.21875 21.660156 C 22.066406 21.515625 22.914062 21.351562 23.75 21.164062 C 23.894531 21.722656 24.082031 22.402344 24.566406 22.722656 C 24.894531 22.945312 25.296875 23.066406 25.640625 23.269531 C 26.046875 23.507812 26.464844 23.707031 26.867188 23.945312 C 26.875 23.949219 26.878906 23.949219 26.882812 23.953125 C 26.878906 24.175781 26.796875 24.40625 26.773438 24.609375 C 26.75 24.609375 26.722656 24.613281 26.695312 24.625 C 26.148438 24.871094 25.414062 24.640625 24.832031 24.628906 C 24.25 24.621094 23.5625 24.507812 23.003906 24.359375 C 22.261719 24.164062 21.5 24.046875 20.757812 23.847656 C 20.273438 23.714844 20.070312 23.335938 19.925781 22.910156 C 20.140625 22.828125 20.347656 22.730469 20.53125 22.574219 Z M 21.304688 16.847656 C 21.390625 17.144531 21.480469 17.386719 21.667969 17.632812 C 21.914062 17.957031 22.441406 18.316406 22.851562 18.351562 C 22.851562 18.351562 22.855469 18.351562 22.855469 18.351562 C 22.859375 18.351562 22.859375 18.355469 22.859375 18.355469 C 22.855469 18.355469 22.855469 18.355469 22.855469 18.355469 C 22.367188 18.511719 21.871094 18.574219 21.378906 18.652344 C 21.375 18.628906 21.375 18.605469 21.363281 18.582031 C 21.039062 17.832031 20.871094 17.066406 20.847656 16.257812 C 21.070312 16.390625 21.222656 16.5625 21.304688 16.847656 Z M 21.230469 13.808594 C 21.332031 14.050781 21.464844 14.285156 21.507812 14.40625 C 21.75 15.121094 22.03125 15.839844 22.292969 16.566406 C 22.089844 16.320312 22.007812 15.984375 21.777344 15.742188 C 21.605469 15.566406 21.378906 15.476562 21.21875 15.289062 C 21.128906 15.183594 21.027344 15.121094 20.90625 15.097656 C 20.964844 14.652344 21.070312 14.199219 21.230469 13.808594 Z M 23.335938 19.792969 C 23.328125 19.792969 23.363281 19.867188 23.367188 19.875 C 23.367188 19.875 23.390625 19.957031 23.390625 19.957031 C 23.398438 19.972656 23.40625 19.988281 23.414062 20.003906 C 23.082031 20.058594 22.757812 20.113281 22.4375 20.179688 C 22.167969 20.238281 21.894531 20.296875 21.621094 20.351562 C 21.632812 20.316406 21.644531 20.28125 21.648438 20.230469 C 21.652344 20.15625 21.652344 20.050781 21.648438 19.976562 C 21.984375 19.929688 22.324219 19.882812 22.664062 19.839844 C 22.867188 19.8125 23.070312 19.773438 23.277344 19.726562 C 23.289062 19.75 23.308594 19.773438 23.335938 19.792969 Z M 25.039062 19.585938 C 25.121094 19.585938 25.199219 19.585938 25.28125 19.589844 C 25.054688 19.664062 24.828125 19.726562 24.597656 19.777344 C 24.59375 19.726562 24.566406 19.679688 24.527344 19.644531 C 24.539062 19.652344 24.523438 19.632812 24.527344 19.636719 C 24.515625 19.617188 24.511719 19.59375 24.503906 19.574219 C 24.648438 19.535156 24.921875 19.585938 25.039062 19.585938 Z M 26.324219 20.476562 C 26.433594 20.738281 26.527344 21 26.527344 21.277344 C 26.527344 21.71875 26.605469 22.167969 26.695312 22.621094 C 26.359375 22.402344 25.976562 22.257812 25.617188 22.085938 C 25.199219 21.886719 24.957031 21.339844 24.796875 20.910156 C 25.3125 20.777344 25.820312 20.636719 26.324219 20.476562 Z M 27.4375 18.699219 C 27.460938 18.699219 27.484375 18.699219 27.503906 18.703125 C 27.445312 18.730469 27.371094 18.75 27.316406 18.773438 C 27.25 18.800781 27.183594 18.839844 27.117188 18.878906 C 27.097656 18.820312 27.078125 18.757812 27.058594 18.699219 C 27.140625 18.699219 27.316406 18.699219 27.4375 18.699219 Z M 27.460938 18.347656 C 27.570312 18.3125 27.6875 18.273438 27.800781 18.230469 C 27.808594 18.292969 27.8125 18.359375 27.800781 18.414062 C 27.734375 18.394531 27.671875 18.382812 27.59375 18.378906 C 27.527344 18.375 27.453125 18.375 27.386719 18.375 C 27.410156 18.363281 27.4375 18.355469 27.460938 18.347656 Z M 28.371094 21.605469 C 28.371094 22.359375 28.480469 23.378906 27.96875 24 C 27.972656 23.9375 27.984375 23.867188 27.992188 23.800781 C 28.089844 22.921875 27.972656 22.03125 27.867188 21.164062 C 27.828125 20.824219 27.722656 20.460938 27.59375 20.101562 C 27.734375 20.027344 27.886719 19.953125 28.03125 19.867188 C 28.207031 20.449219 28.371094 20.960938 28.371094 21.605469 Z M 1.355469 17.910156 C 1.691406 18.722656 1.980469 19.628906 2.429688 20.382812 C 2.765625 20.941406 3.0625 21.539062 3.40625 22.101562 C 3.09375 22.179688 3.046875 22.484375 3.148438 22.824219 C 3.21875 23.058594 3.335938 23.292969 3.453125 23.503906 C 3.683594 23.910156 4.09375 24.140625 4.101562 24.660156 C 4.109375 25.167969 5.046875 25.058594 5.363281 25.0625 C 5.601562 25.0625 5.699219 25.023438 5.816406 24.804688 C 5.894531 24.652344 5.898438 24.535156 6.09375 24.476562 C 6.207031 24.4375 6.261719 24.390625 6.316406 24.289062 C 6.332031 24.257812 6.339844 24.226562 6.335938 24.199219 C 6.554688 24.210938 6.78125 24.25 7.042969 24.339844 C 7.65625 24.542969 8.210938 24.808594 8.789062 25.09375 C 9.953125 25.675781 11 25.863281 12.289062 25.863281 C 13.519531 25.863281 14.703125 25.589844 15.730469 24.867188 C 16.242188 24.507812 16.597656 24.050781 16.808594 23.523438 C 17.089844 23.578125 17.382812 23.617188 17.667969 23.628906 C 18.050781 23.636719 18.402344 23.449219 18.761719 23.316406 C 19.214844 25.058594 21.054688 25.011719 22.515625 25.484375 C 23.273438 25.730469 24.0625 25.707031 24.816406 25.914062 C 25.472656 26.09375 26.273438 26.117188 26.894531 25.824219 C 26.90625 25.828125 26.914062 25.835938 26.925781 25.835938 C 27.140625 25.839844 27.34375 25.925781 27.558594 25.925781 C 27.625 25.925781 27.671875 25.90625 27.710938 25.875 C 27.78125 25.863281 27.847656 25.824219 27.847656 25.75 C 27.847656 25.71875 27.847656 25.6875 27.847656 25.652344 C 27.867188 25.609375 27.886719 25.5625 27.910156 25.519531 C 27.910156 25.519531 27.910156 25.515625 27.910156 25.511719 C 27.929688 25.507812 27.945312 25.507812 27.960938 25.496094 C 28.027344 25.460938 28.082031 25.414062 28.136719 25.367188 C 28.1875 25.320312 28.226562 25.25 28.289062 25.214844 C 28.414062 25.132812 28.523438 25.03125 28.652344 24.949219 C 28.703125 24.917969 28.726562 24.871094 28.730469 24.824219 C 28.992188 24.621094 28.945312 24.21875 29.074219 23.875 C 29.40625 23 29.386719 22.105469 29.375 21.1875 C 29.351562 19.632812 29.085938 18.222656 28.425781 16.804688 C 28.386719 16.722656 28.316406 16.703125 28.253906 16.722656 C 27.597656 16.5625 26.796875 16.75 26.121094 16.804688 C 25.230469 16.878906 24.332031 17.070312 23.441406 17.113281 C 23.109375 16.445312 22.898438 15.660156 22.6875 14.945312 C 22.523438 14.382812 22.410156 13.726562 22.152344 13.195312 C 22.164062 13.1875 22.179688 13.183594 22.191406 13.171875 C 22.261719 13.144531 22.332031 13.109375 22.402344 13.078125 C 22.539062 13.015625 22.714844 12.953125 22.824219 12.851562 C 22.992188 12.695312 23.128906 12.453125 23.1875 12.234375 C 23.1875 12.234375 23.1875 12.230469 23.1875 12.226562 C 23.214844 12.207031 23.234375 12.183594 23.246094 12.148438 C 23.375 11.757812 23.476562 11.925781 23.746094 11.707031 C 23.957031 11.539062 24.109375 11.324219 24.015625 11.039062 C 23.730469 10.175781 23.132812 9.464844 22.816406 8.617188 C 22.808594 8.601562 22.800781 8.589844 22.792969 8.578125 C 22.789062 8.53125 22.765625 8.484375 22.707031 8.457031 C 22.453125 8.328125 22.046875 8.316406 21.9375 8.644531 C 21.847656 8.914062 21.5625 8.644531 21.421875 8.5625 C 21.359375 8.523438 21.292969 8.5 21.230469 8.496094 C 20.085938 5.542969 16.632812 3.972656 13.707031 3.472656 C 10.320312 2.894531 6.5 4.496094 4.089844 6.800781 C 2.90625 7.9375 1.835938 9.425781 1.210938 10.945312 C 0.605469 12.40625 0.640625 14.300781 0.769531 15.847656 C 0.832031 16.558594 1.085938 17.253906 1.355469 17.910156 " fill-opacity="1" fill-rule="nonzero"/><path fill="#000000" d="M 28.914062 23.152344 C 28.875 23.304688 28.632812 24.527344 28.460938 24.578125 C 28.371094 24.605469 28.339844 24.679688 28.339844 24.746094 C 28.269531 24.804688 28.191406 24.867188 28.113281 24.914062 C 28.019531 24.980469 27.953125 25.070312 27.867188 25.140625 C 27.878906 24.910156 27.898438 24.675781 27.921875 24.453125 C 27.964844 24.457031 28.011719 24.445312 28.054688 24.410156 C 28.710938 23.847656 28.707031 22.90625 28.707031 22.109375 C 28.707031 21.1875 28.574219 20.507812 28.324219 19.65625 C 28.449219 19.539062 28.550781 19.390625 28.585938 19.199219 C 28.625 19.015625 28.566406 18.707031 28.417969 18.574219 C 28.335938 18.492188 28.242188 18.460938 28.144531 18.449219 C 28.160156 18.332031 28.136719 18.203125 28.132812 18.09375 C 28.132812 18.074219 28.125 18.058594 28.121094 18.042969 C 28.28125 17.898438 28.324219 17.652344 28.320312 17.410156 C 28.742188 18.40625 29.074219 19.5625 29.023438 20.617188 C 28.984375 21.46875 29.117188 22.308594 28.914062 23.152344 Z M 27.59375 20.101562 C 27.734375 20.027344 27.886719 19.953125 28.03125 19.867188 C 28.207031 20.449219 28.371094 20.960938 28.371094 21.605469 C 28.371094 22.359375 28.480469 23.378906 27.96875 24 C 27.976562 23.9375 27.984375 23.867188 27.992188 23.800781 C 28.089844 22.917969 27.972656 22.03125 27.867188 21.164062 C 27.828125 20.824219 27.722656 20.460938 27.59375 20.101562 Z M 27.503906 25.574219 C 27.492188 25.570312 27.453125 25.574219 27.433594 25.574219 C 27.378906 25.5625 27.324219 25.550781 27.269531 25.539062 C 27.296875 25.359375 27.230469 25.238281 27.164062 25.015625 C 27.097656 24.785156 27.242188 24.515625 27.253906 24.28125 C 27.304688 23.445312 27.097656 22.539062 26.949219 21.71875 C 26.875 21.304688 26.824219 20.9375 26.710938 20.535156 C 26.632812 20.253906 26.179688 19.4375 26.328125 19.125 C 26.523438 18.707031 26.019531 18.273438 26.007812 17.835938 C 26.007812 17.824219 26.007812 17.820312 26.003906 17.8125 C 26.085938 17.792969 26.171875 17.777344 26.257812 17.757812 C 26.265625 17.757812 26.269531 17.757812 26.277344 17.757812 C 26.285156 17.777344 26.296875 17.792969 26.316406 17.8125 C 26.699219 18.1875 26.746094 18.875 26.933594 19.34375 C 27.230469 20.078125 27.523438 20.984375 27.582031 21.773438 C 27.671875 23.050781 27.519531 24.265625 27.503906 25.574219 Z M 26.867188 25.5 C 26.832031 25.492188 26.796875 25.492188 26.753906 25.515625 C 26.183594 25.796875 25.367188 25.710938 24.761719 25.542969 C 24.230469 25.398438 23.664062 25.421875 23.125 25.265625 C 21.734375 24.867188 19.523438 24.867188 19.082031 23.1875 C 19.085938 23.171875 19.089844 23.160156 19.085938 23.140625 C 19.078125 23.039062 19.058594 22.960938 19.015625 22.867188 C 18.953125 22.726562 18.914062 22.554688 18.835938 22.421875 C 18.765625 22.308594 18.722656 22.175781 18.660156 22.0625 C 18.695312 22.054688 18.726562 22.050781 18.761719 22.046875 C 18.910156 22.023438 19.050781 22.003906 19.199219 21.980469 C 19.359375 22.222656 19.378906 22.539062 19.503906 22.796875 C 19.703125 23.207031 19.839844 23.578125 20.140625 23.925781 C 20.324219 24.132812 20.71875 24.195312 20.960938 24.257812 C 21.5 24.402344 22.050781 24.523438 22.605469 24.625 C 23.351562 24.765625 24.082031 24.882812 24.828125 24.972656 C 25.449219 25.050781 26.207031 25.179688 26.804688 24.945312 C 26.855469 25.128906 26.9375 25.316406 26.925781 25.488281 C 26.902344 25.488281 26.882812 25.496094 26.867188 25.5 Z M 17.796875 23.28125 C 17.527344 23.3125 17.203125 23.25 16.917969 23.195312 C 16.992188 22.933594 17.035156 22.65625 17.046875 22.367188 C 17.453125 22.285156 17.863281 22.199219 18.265625 22.125 C 18.273438 22.132812 18.273438 22.136719 18.285156 22.144531 C 18.402344 22.210938 18.445312 22.414062 18.5 22.53125 C 18.550781 22.636719 18.574219 22.746094 18.625 22.855469 C 18.644531 22.894531 18.667969 22.9375 18.6875 22.980469 C 18.398438 23.085938 18.097656 23.25 17.796875 23.28125 Z M 25.617188 22.085938 C 25.199219 21.886719 24.960938 21.339844 24.796875 20.910156 C 25.308594 20.777344 25.820312 20.636719 26.324219 20.476562 C 26.433594 20.738281 26.523438 21 26.523438 21.273438 C 26.523438 21.71875 26.605469 22.167969 26.691406 22.621094 C 26.359375 22.402344 25.976562 22.253906 25.617188 22.085938 Z M 25.167969 22.628906 C 24.722656 22.40625 24.460938 22.265625 24.328125 21.738281 C 24.273438 21.511719 24.171875 21.304688 24.09375 21.082031 C 24.21875 21.050781 24.34375 21.027344 24.464844 20.996094 C 24.628906 21.433594 24.847656 21.882812 25.160156 22.230469 C 25.316406 22.402344 25.664062 22.488281 25.871094 22.585938 C 26.136719 22.722656 26.398438 22.824219 26.640625 23 C 26.683594 23.035156 26.730469 23.042969 26.769531 23.03125 C 26.800781 23.199219 26.828125 23.367188 26.851562 23.539062 C 26.300781 23.21875 25.742188 22.910156 25.167969 22.628906 Z M 19.820312 22.585938 C 19.792969 22.496094 19.765625 22.402344 19.734375 22.316406 C 19.753906 22.308594 19.769531 22.300781 19.785156 22.289062 C 19.875 22.210938 19.980469 22.15625 20.074219 22.082031 C 20.167969 22.007812 20.234375 21.917969 20.289062 21.8125 C 20.449219 21.789062 20.613281 21.765625 20.777344 21.738281 C 20.648438 21.929688 20.519531 22.121094 20.351562 22.28125 C 20.203125 22.421875 20.011719 22.511719 19.820312 22.585938 Z M 20.53125 22.574219 C 20.808594 22.34375 20.988281 22.027344 21.191406 21.738281 C 21.207031 21.710938 21.214844 21.6875 21.21875 21.660156 C 22.066406 21.515625 22.914062 21.355469 23.75 21.164062 C 23.894531 21.722656 24.085938 22.402344 24.5625 22.722656 C 24.898438 22.945312 25.296875 23.066406 25.644531 23.269531 C 26.042969 23.507812 26.464844 23.707031 26.867188 23.949219 C 26.875 23.949219 26.878906 23.949219 26.882812 23.953125 C 26.875 24.175781 26.796875 24.402344 26.773438 24.609375 C 26.75 24.609375 26.722656 24.613281 26.695312 24.625 C 26.148438 24.871094 25.414062 24.636719 24.828125 24.632812 C 24.25 24.625 23.566406 24.507812 23.003906 24.359375 C 22.257812 24.164062 21.5 24.046875 20.757812 23.847656 C 20.273438 23.714844 20.070312 23.335938 19.925781 22.910156 C 20.140625 22.824219 20.34375 22.726562 20.53125 22.574219 Z M 16.054688 22.144531 C 15.339844 22.273438 14.640625 22.308594 13.90625 22.273438 C 13.375 22.242188 11.980469 21.902344 11.632812 21.46875 C 11.550781 21.371094 11.4375 21.410156 11.378906 21.496094 C 11.308594 21.507812 11.238281 21.515625 11.164062 21.511719 C 11.125 21.511719 11.078125 21.507812 11.042969 21.488281 C 11.003906 21.472656 11.019531 21.480469 11.023438 21.445312 C 11.023438 21.425781 11.019531 21.402344 11.011719 21.386719 C 11.011719 21.382812 11.015625 21.382812 11.015625 21.378906 C 11.058594 21.210938 11.140625 21.058594 11.171875 20.882812 C 11.191406 20.753906 11.203125 20.621094 11.214844 20.492188 C 11.359375 20.554688 11.523438 20.597656 11.6875 20.640625 C 11.632812 20.734375 11.597656 20.84375 11.597656 20.960938 C 11.589844 21.171875 11.886719 21.179688 11.929688 20.996094 C 12.902344 21.335938 13.742188 21.78125 14.8125 21.734375 C 16.039062 21.683594 17.417969 21.527344 18.601562 21.230469 C 19.808594 20.929688 21.082031 20.886719 22.292969 20.582031 C 23.515625 20.277344 24.84375 20.203125 26 19.675781 C 26.042969 19.839844 26.113281 20 26.183594 20.160156 C 25.203125 20.46875 24.203125 20.730469 23.207031 20.96875 C 22.03125 21.242188 20.808594 21.296875 19.617188 21.570312 C 18.453125 21.835938 17.234375 21.925781 16.054688 22.144531 Z M 13.53125 22.515625 C 13.753906 22.554688 13.972656 22.585938 14.203125 22.601562 C 14.253906 22.660156 14.183594 22.769531 14.15625 22.835938 C 14.128906 22.917969 13.960938 22.882812 13.886719 22.882812 C 13.765625 22.882812 13.664062 22.882812 13.605469 22.765625 C 13.566406 22.691406 13.546875 22.605469 13.53125 22.515625 Z M 10.683594 20.003906 C 10.71875 20.121094 10.789062 20.21875 10.882812 20.296875 C 10.882812 20.308594 10.878906 20.320312 10.875 20.328125 C 10.875 20.507812 10.855469 20.683594 10.828125 20.855469 C 10.8125 20.867188 10.796875 20.882812 10.789062 20.90625 C 10.640625 21.164062 10.0625 21.199219 9.816406 21.21875 C 9.1875 21.273438 8.796875 20.726562 8.660156 20.199219 C 8.496094 19.5625 8.761719 18.960938 9.402344 18.746094 C 9.910156 18.578125 10.566406 18.894531 10.816406 19.328125 C 10.820312 19.339844 10.832031 19.347656 10.839844 19.351562 C 10.789062 19.511719 10.777344 19.683594 10.726562 19.839844 C 10.683594 19.875 10.660156 19.933594 10.683594 20.003906 Z M 10.648438 25.410156 C 9.535156 25.121094 8.5625 24.558594 7.503906 24.121094 C 6.601562 23.746094 6.015625 23.832031 5.101562 23.972656 C 4.1875 23.144531 3.769531 21.765625 3.070312 20.789062 C 2.667969 20.226562 2.515625 19.574219 2.234375 18.960938 C 1.867188 18.171875 1.492188 17.414062 1.257812 16.570312 C 0.859375 15.144531 1.003906 13.246094 1.308594 11.816406 C 1.640625 10.230469 2.859375 8.621094 3.9375 7.453125 C 6.183594 5.019531 9.511719 3.710938 12.804688 3.738281 C 13.671875 3.746094 14.429688 4.003906 15.242188 4.265625 C 16.078125 4.539062 16.902344 4.738281 17.667969 5.191406 C 19.046875 6.003906 20.363281 7.132812 20.929688 8.671875 C 20.929688 8.683594 20.929688 8.691406 20.929688 8.703125 C 20.863281 8.722656 20.800781 8.753906 20.746094 8.796875 C 20.574219 8.1875 19.949219 7.628906 19.613281 7.128906 C 19.242188 6.585938 18.707031 6.121094 18.171875 5.761719 C 17.988281 5.636719 17.816406 5.9375 17.996094 6.058594 C 18.488281 6.390625 18.835938 6.808594 19.25 7.226562 C 19.46875 7.453125 19.734375 7.804688 19.90625 8.0625 C 20.046875 8.265625 20.339844 8.6875 20.425781 8.949219 C 20.289062 9.003906 20.160156 9.0625 20.066406 9.0625 C 19.890625 9.0625 19.582031 9.074219 19.597656 9.339844 C 19.625 9.667969 19.683594 9.980469 19.8125 10.285156 C 19.828125 10.378906 19.84375 10.476562 19.855469 10.570312 C 19.882812 10.722656 20 10.9375 20.042969 11.058594 C 20.078125 11.160156 19.890625 11.28125 19.832031 11.355469 C 19.8125 11.382812 19.804688 11.40625 19.796875 11.429688 C 19.1875 11.628906 18.585938 11.847656 17.996094 12.140625 C 16.886719 12.691406 15.707031 13.03125 14.664062 13.730469 C 14.027344 14.160156 13.359375 14.742188 12.910156 15.371094 C 12.613281 15.789062 12.1875 16.304688 12 16.785156 C 11.898438 17.0625 11.804688 17.339844 11.707031 17.617188 C 11.554688 17.484375 11.4375 17.335938 11.25 17.242188 C 11.132812 17.183594 11.023438 17.113281 10.894531 17.0625 C 10.75 17.011719 10.59375 17.003906 10.449219 16.941406 C 10.246094 16.855469 10.070312 17.152344 10.273438 17.242188 C 10.480469 17.328125 10.726562 17.335938 10.917969 17.457031 C 11.023438 17.519531 11.144531 17.5625 11.238281 17.640625 C 11.324219 17.714844 11.390625 17.800781 11.472656 17.871094 C 11.480469 17.875 11.484375 17.875 11.488281 17.878906 C 11.484375 17.941406 11.511719 18.003906 11.5625 18.035156 C 11.515625 18.164062 11.472656 18.289062 11.425781 18.417969 C 11.351562 18.4375 11.289062 18.496094 11.285156 18.585938 C 11.203125 18.734375 11.113281 18.875 11.023438 19.023438 C 10.683594 18.566406 10.035156 18.265625 9.46875 18.382812 C 8.652344 18.554688 8.253906 19.136719 8.265625 19.957031 C 8.277344 20.5625 8.632812 21.25 9.234375 21.445312 C 9.597656 21.566406 10.242188 21.605469 10.683594 21.414062 C 10.683594 21.425781 10.675781 21.433594 10.675781 21.445312 C 10.65625 21.867188 11.191406 21.90625 11.496094 21.824219 C 11.835938 22.132812 12.359375 22.199219 12.785156 22.328125 C 12.917969 22.371094 13.050781 22.410156 13.183594 22.4375 C 13.183594 22.453125 13.179688 22.457031 13.179688 22.472656 C 13.210938 22.65625 13.246094 23.003906 13.429688 23.113281 C 13.632812 23.238281 13.871094 23.230469 14.097656 23.226562 C 14.398438 23.222656 14.585938 22.902344 14.558594 22.617188 C 14.714844 22.625 14.875 22.625 15.039062 22.625 C 15.359375 22.617188 15.679688 22.589844 16.003906 22.546875 C 15.644531 24.945312 12.683594 25.363281 10.75 24.839844 C 9.097656 24.386719 7.234375 22.746094 5.433594 23.347656 C 5.226562 23.417969 5.3125 23.75 5.527344 23.679688 C 6.730469 23.277344 8.191406 24.066406 9.21875 24.65625 C 10.023438 25.117188 11.105469 25.347656 12.027344 25.347656 C 12.90625 25.347656 14.109375 25.441406 14.847656 24.808594 C 15.632812 24.136719 16.214844 23.585938 16.355469 22.492188 C 16.46875 22.472656 16.582031 22.453125 16.695312 22.433594 C 16.503906 25.164062 12.90625 26.003906 10.648438 25.410156 Z M 5.542969 24.5 C 5.496094 24.804688 5.304688 24.722656 5.046875 24.710938 C 4.898438 24.703125 4.445312 24.710938 4.445312 24.492188 C 4.4375 24.082031 4.148438 23.835938 3.90625 23.539062 C 3.808594 23.421875 3.183594 22.421875 3.582031 22.425781 C 3.59375 22.425781 3.601562 22.421875 3.605469 22.421875 C 3.625 22.449219 3.644531 22.484375 3.664062 22.511719 C 4.070312 23.101562 4.421875 23.871094 4.984375 24.324219 C 5.074219 24.398438 5.183594 24.363281 5.242188 24.296875 C 5.492188 24.257812 5.707031 24.222656 5.917969 24.207031 C 5.78125 24.277344 5.578125 24.289062 5.542969 24.5 Z M 21.5625 9.269531 C 21.570312 9.328125 21.585938 9.386719 21.609375 9.4375 C 21.777344 9.785156 21.9375 10.121094 22.15625 10.441406 C 22.277344 10.621094 22.394531 10.863281 22.472656 11.058594 C 22.644531 11.484375 22.136719 11.675781 21.785156 11.71875 C 21.8125 11.574219 21.777344 11.414062 21.648438 11.25 C 21.648438 11.246094 21.648438 11.246094 21.648438 11.242188 C 21.460938 10.890625 21.234375 10.59375 21.078125 10.21875 C 20.960938 9.941406 20.90625 9.65625 20.898438 9.351562 C 21.113281 8.953125 21.335938 8.929688 21.5625 9.269531 Z M 22.167969 8.984375 C 22.285156 8.867188 22.292969 8.660156 22.496094 8.738281 C 22.738281 9.371094 23.082031 9.9375 23.417969 10.527344 C 23.53125 10.71875 23.773438 11.175781 23.617188 11.375 C 23.492188 11.527344 23.40625 11.484375 23.320312 11.472656 C 23.289062 11.441406 23.25 11.414062 23.195312 11.414062 C 23.078125 11.410156 22.972656 11.363281 22.863281 11.320312 C 22.871094 11.253906 22.863281 11.183594 22.84375 11.109375 C 22.75 10.761719 22.5625 10.429688 22.359375 10.132812 C 22.136719 9.804688 22.023438 9.445312 21.875 9.089844 C 21.980469 9.082031 22.09375 9.058594 22.167969 8.984375 Z M 22.878906 12.054688 C 22.878906 12.078125 22.851562 12.105469 22.839844 12.140625 C 22.800781 12.289062 22.683594 12.53125 22.554688 12.613281 C 22.359375 12.734375 22.128906 12.835938 21.914062 12.910156 C 21.890625 12.914062 21.867188 12.917969 21.84375 12.921875 C 21.800781 12.894531 21.746094 12.878906 21.671875 12.878906 C 20.660156 12.878906 19.535156 13.160156 18.4375 13.226562 C 18.910156 13.03125 19.457031 12.878906 19.882812 12.8125 C 20.316406 12.746094 21.179688 12.480469 21.578125 12.074219 C 21.582031 12.074219 21.585938 12.074219 21.585938 12.074219 C 21.917969 12.09375 22.472656 11.949219 22.726562 11.636719 C 22.738281 11.644531 22.746094 11.648438 22.746094 11.648438 C 22.796875 11.664062 22.839844 11.667969 22.886719 11.6875 C 22.925781 11.699219 22.949219 11.710938 22.988281 11.722656 C 22.953125 11.824219 22.878906 11.933594 22.878906 12.054688 Z M 22.511719 15.503906 C 22.738281 16.105469 22.863281 16.742188 23.160156 17.320312 C 23.175781 17.351562 23.203125 17.375 23.226562 17.390625 C 23.246094 17.414062 23.265625 17.4375 23.300781 17.449219 C 23.324219 17.589844 23.367188 17.722656 23.410156 17.855469 C 23.4375 17.933594 23.472656 18.007812 23.480469 18.09375 C 23.484375 18.121094 23.492188 18.140625 23.496094 18.164062 C 23.394531 18.195312 23.292969 18.226562 23.191406 18.257812 C 22.929688 17.269531 22.515625 16.3125 22.210938 15.328125 C 22.078125 14.894531 21.890625 14.46875 21.746094 14.042969 C 21.683594 13.859375 21.582031 13.675781 21.523438 13.492188 C 21.484375 13.367188 21.644531 13.308594 21.8125 13.273438 C 21.8125 13.277344 21.8125 13.277344 21.8125 13.277344 C 22.160156 13.933594 22.246094 14.796875 22.511719 15.503906 Z M 24.933594 19.242188 L 24.902344 19.242188 C 25.25 19.121094 25.597656 19 25.9375 18.890625 C 25.953125 18.976562 25.964844 19.070312 25.949219 19.15625 C 25.945312 19.210938 25.945312 19.265625 25.945312 19.324219 C 25.9375 19.328125 25.9375 19.328125 25.929688 19.328125 C 25.902344 19.296875 25.863281 19.273438 25.808594 19.269531 C 25.511719 19.253906 25.226562 19.242188 24.933594 19.242188 Z M 15.207031 14.417969 C 15.050781 14.542969 14.789062 14.625 14.613281 14.726562 C 14.386719 14.851562 14.285156 15.105469 14.113281 15.285156 C 13.957031 15.445312 13.808594 15.632812 13.6875 15.824219 C 13.535156 16.066406 13.445312 16.375 13.253906 16.589844 C 13.050781 16.515625 12.847656 16.4375 12.644531 16.371094 C 12.820312 16.054688 13.023438 15.753906 13.273438 15.480469 C 13.796875 14.890625 14.351562 14.355469 15.007812 13.921875 C 15.070312 14.085938 15.140625 14.253906 15.207031 14.414062 C 15.207031 14.417969 15.207031 14.417969 15.207031 14.417969 Z M 15.347656 14.730469 C 15.472656 15.011719 15.601562 15.289062 15.722656 15.570312 C 15.707031 15.589844 15.691406 15.613281 15.679688 15.640625 C 15.542969 15.988281 15.410156 16.3125 15.386719 16.691406 C 15.371094 16.933594 15.378906 17.1875 15.40625 17.4375 C 15.109375 17.273438 14.753906 17.1875 14.453125 17.066406 C 14.171875 16.953125 13.878906 16.835938 13.585938 16.71875 C 13.660156 16.609375 13.726562 16.492188 13.789062 16.375 C 13.964844 16.0625 14.140625 15.804688 14.355469 15.523438 C 14.503906 15.335938 14.65625 15.09375 14.867188 14.976562 C 15.03125 14.882812 15.195312 14.824219 15.347656 14.730469 Z M 16.789062 18.898438 C 16.855469 18.851562 16.90625 18.792969 16.949219 18.726562 C 17.015625 18.882812 17.085938 19.03125 17.15625 19.183594 C 17.011719 19.132812 16.867188 19.050781 16.71875 18.9375 C 16.742188 18.925781 16.765625 18.914062 16.789062 18.898438 Z M 15.753906 16.757812 C 15.78125 16.511719 15.832031 16.265625 15.910156 16.019531 C 15.96875 16.167969 16.03125 16.324219 16.082031 16.476562 C 16.097656 16.535156 16.125 16.597656 16.144531 16.65625 C 16.011719 16.65625 15.875 16.695312 15.753906 16.757812 Z M 15.820312 17.125 C 15.894531 17.058594 16.160156 16.917969 16.242188 17.035156 C 16.257812 17.058594 16.277344 17.074219 16.292969 17.085938 C 16.449219 17.511719 16.621094 17.941406 16.800781 18.367188 C 16.78125 18.378906 16.769531 18.394531 16.757812 18.410156 C 16.707031 18.476562 16.664062 18.550781 16.601562 18.609375 C 16.554688 18.65625 16.492188 18.664062 16.425781 18.664062 C 16.191406 18.386719 16.042969 18.046875 15.808594 17.769531 C 15.765625 17.5625 15.746094 17.363281 15.738281 17.167969 C 15.769531 17.160156 15.796875 17.148438 15.820312 17.125 Z M 16.757812 16.230469 C 17.191406 17.210938 17.746094 18.238281 18.054688 19.265625 C 17.878906 19.277344 17.714844 19.285156 17.558594 19.273438 C 17.554688 19.253906 17.554688 19.230469 17.542969 19.210938 C 17.128906 18.320312 16.726562 17.320312 16.414062 16.386719 C 16.113281 15.484375 15.648438 14.664062 15.320312 13.777344 C 15.316406 13.761719 15.308594 13.75 15.300781 13.738281 C 15.40625 13.675781 15.515625 13.613281 15.621094 13.558594 C 15.957031 14.460938 16.367188 15.34375 16.757812 16.230469 Z M 16.480469 14.671875 C 16.425781 14.554688 16.371094 14.4375 16.316406 14.320312 C 16.566406 14.21875 16.828125 14.097656 17.082031 13.964844 C 16.878906 14.191406 16.691406 14.441406 16.480469 14.671875 Z M 18.515625 17.203125 C 18.507812 17.03125 18.554688 16.882812 18.660156 16.757812 C 18.882812 16.519531 19.148438 16.535156 19.457031 16.804688 C 19.59375 17.046875 19.570312 17.222656 19.613281 17.480469 C 19.6875 17.933594 19.761719 18.609375 19.519531 19.039062 C 19.214844 19.09375 18.917969 19.144531 18.613281 19.191406 C 18.539062 19.199219 18.464844 19.210938 18.398438 19.222656 C 18.394531 19.210938 18.398438 19.207031 18.394531 19.195312 C 18.359375 19.082031 18.324219 18.972656 18.28125 18.863281 C 18.667969 18.46875 18.460938 17.699219 18.515625 17.203125 Z M 19.976562 17.597656 C 19.933594 17.253906 19.929688 16.792969 19.703125 16.488281 C 19.722656 16.488281 19.746094 16.488281 19.765625 16.484375 C 20.296875 16.402344 20.433594 16.933594 20.511719 17.277344 C 20.609375 17.679688 20.875 18.292969 20.734375 18.707031 C 20.722656 18.734375 20.722656 18.757812 20.722656 18.78125 L 20.679688 18.789062 C 20.429688 18.851562 20.179688 18.902344 19.929688 18.957031 C 20.066406 18.53125 20.03125 18.007812 19.976562 17.597656 Z M 20.496094 15.828125 C 20.5 16.023438 20.507812 16.207031 20.519531 16.390625 C 20.425781 16.261719 20.304688 16.160156 20.109375 16.121094 C 19.855469 16.074219 19.488281 16.109375 19.214844 16.203125 C 18.867188 16.15625 18.429688 16.355469 18.289062 16.691406 C 18.164062 16.980469 18.144531 17.304688 18.148438 17.617188 C 18.152344 17.796875 18.207031 18.242188 18.121094 18.492188 C 17.816406 17.832031 17.417969 17.203125 17.234375 16.515625 C 17.089844 16 16.875 15.503906 16.640625 15.015625 C 16.925781 14.730469 17.1875 14.4375 17.445312 14.128906 C 17.863281 13.640625 18.304688 13.640625 18.886719 13.503906 C 19.320312 13.402344 19.753906 13.457031 20.195312 13.382812 C 20.519531 13.332031 20.816406 13.28125 21.121094 13.25 C 20.683594 13.984375 20.488281 14.988281 20.496094 15.828125 Z M 21.777344 15.746094 C 21.605469 15.566406 21.378906 15.476562 21.21875 15.289062 C 21.128906 15.1875 21.027344 15.125 20.90625 15.097656 C 20.964844 14.652344 21.070312 14.199219 21.230469 13.808594 C 21.332031 14.050781 21.464844 14.285156 21.503906 14.40625 C 21.753906 15.121094 22.03125 15.84375 22.292969 16.566406 C 22.089844 16.320312 22.007812 15.984375 21.777344 15.746094 Z M 22.851562 18.351562 C 22.851562 18.351562 22.855469 18.351562 22.855469 18.351562 C 22.855469 18.351562 22.855469 18.355469 22.855469 18.355469 C 22.367188 18.511719 21.871094 18.574219 21.378906 18.652344 C 21.375 18.628906 21.375 18.605469 21.363281 18.582031 C 21.042969 17.832031 20.871094 17.0625 20.84375 16.257812 C 21.070312 16.390625 21.222656 16.566406 21.304688 16.847656 C 21.390625 17.144531 21.480469 17.390625 21.667969 17.632812 C 21.914062 17.957031 22.441406 18.316406 22.851562 18.351562 Z M 22.035156 17.53125 C 21.773438 17.308594 21.691406 16.945312 21.601562 16.632812 C 21.492188 16.25 21.183594 16.023438 20.84375 15.867188 C 20.847656 15.730469 20.855469 15.589844 20.867188 15.441406 C 20.992188 15.496094 21.121094 15.6875 21.214844 15.757812 C 21.320312 15.839844 21.433594 15.902344 21.535156 15.984375 C 21.640625 16.078125 21.628906 16.15625 21.695312 16.261719 C 21.910156 16.589844 22 16.871094 22.363281 17.066406 C 22.402344 17.089844 22.4375 17.09375 22.472656 17.085938 C 22.574219 17.386719 22.671875 17.6875 22.757812 17.992188 C 22.519531 17.917969 22.199219 17.664062 22.035156 17.53125 Z M 21.257812 11.332031 C 21.886719 11.945312 20.011719 12.40625 19.789062 12.480469 C 19.457031 12.589844 19.117188 12.648438 18.785156 12.789062 C 18.386719 12.957031 17.976562 13.097656 17.578125 13.257812 C 17.082031 13.453125 16.671875 13.808594 16.175781 14.003906 C 16.097656 13.824219 16.019531 13.644531 15.953125 13.460938 C 15.945312 13.441406 15.933594 13.421875 15.921875 13.410156 C 16.660156 13.0625 17.4375 12.800781 18.167969 12.4375 C 19.164062 11.941406 20.210938 11.667969 21.257812 11.332031 Z M 21.125 11.011719 C 20.875 11.089844 20.628906 11.171875 20.382812 11.246094 C 20.394531 11.214844 20.402344 11.183594 20.402344 11.140625 C 20.402344 11.011719 20.351562 10.875 20.296875 10.753906 C 20.183594 10.523438 20.183594 10.289062 20.089844 10.058594 C 20.042969 9.945312 19.882812 9.398438 20.066406 9.410156 C 20.277344 9.421875 20.386719 9.308594 20.554688 9.25 C 20.472656 9.886719 20.804688 10.464844 21.125 11.011719 Z M 11.722656 18.609375 C 11.84375 18.277344 11.964844 17.941406 12.085938 17.605469 C 12.277344 17.664062 12.464844 17.726562 12.648438 17.792969 C 12.585938 17.929688 12.523438 18.070312 12.480469 18.210938 C 12.417969 18.410156 12.214844 18.585938 12.226562 18.800781 C 12.152344 18.804688 12.070312 18.757812 11.996094 18.71875 C 11.960938 18.703125 11.820312 18.652344 11.722656 18.609375 Z M 11.914062 19.058594 C 12.121094 19.15625 12.34375 19.191406 12.511719 19.050781 C 12.820312 19.171875 13.097656 19.261719 13.429688 19.335938 C 13.660156 19.390625 13.863281 19.472656 14.054688 19.621094 C 14.164062 19.707031 14.332031 20.425781 14.121094 20.582031 C 13.757812 20.855469 12.96875 20.613281 12.558594 20.480469 C 12.265625 20.382812 11.257812 20.285156 11.046875 19.96875 C 11.132812 19.746094 11.117188 19.507812 11.257812 19.296875 C 11.34375 19.164062 11.429688 19.023438 11.511719 18.882812 C 11.636719 18.953125 11.789062 18.996094 11.914062 19.058594 Z M 15.839844 20.5625 C 15.914062 20.714844 15.96875 20.875 16.023438 21.035156 C 16.046875 21.109375 16.035156 21.175781 16.019531 21.242188 C 15.722656 21.28125 15.425781 21.320312 15.125 21.355469 C 14.070312 21.476562 13.253906 21.113281 12.332031 20.777344 C 12.378906 20.789062 12.429688 20.800781 12.46875 20.8125 C 13.09375 21 13.828125 21.230469 14.402344 20.796875 C 14.738281 20.546875 14.546875 19.808594 14.414062 19.496094 C 14.179688 18.953125 13.03125 18.902344 12.597656 18.71875 C 12.632812 18.671875 12.671875 18.621094 12.6875 18.578125 C 12.730469 18.484375 12.785156 18.40625 12.8125 18.304688 C 12.832031 18.21875 12.863281 18.128906 12.917969 18.058594 C 12.957031 18.011719 12.972656 17.960938 12.988281 17.910156 C 13.316406 18.035156 13.636719 18.171875 13.949219 18.328125 C 14.257812 18.484375 14.585938 18.480469 14.894531 18.671875 C 15.246094 18.890625 15.558594 19.453125 15.78125 19.785156 C 15.996094 20.105469 16.238281 20.3125 16.5 20.4375 C 16.492188 20.476562 16.5 20.519531 16.53125 20.5625 C 16.652344 20.738281 16.71875 20.925781 16.730469 21.136719 C 16.617188 21.152344 16.503906 21.171875 16.390625 21.1875 C 16.390625 21.101562 16.386719 21.023438 16.355469 20.941406 C 16.285156 20.757812 16.226562 20.570312 16.136719 20.386719 C 16.042969 20.1875 15.746094 20.363281 15.839844 20.5625 Z M 17.925781 20.960938 C 17.640625 21 17.355469 21.042969 17.074219 21.085938 C 17.058594 20.90625 17.015625 20.734375 16.9375 20.574219 C 17.207031 20.621094 17.496094 20.617188 17.800781 20.585938 C 17.800781 20.609375 17.796875 20.640625 17.804688 20.664062 C 17.816406 20.707031 17.84375 20.753906 17.863281 20.800781 C 17.882812 20.851562 17.902344 20.90625 17.925781 20.960938 Z M 18.679688 20.867188 C 18.546875 20.882812 18.410156 20.898438 18.273438 20.917969 C 18.226562 20.808594 18.1875 20.699219 18.140625 20.585938 C 18.140625 20.570312 18.140625 20.554688 18.140625 20.539062 C 18.261719 20.519531 18.390625 20.5 18.519531 20.476562 C 18.542969 20.539062 18.570312 20.601562 18.597656 20.664062 C 18.613281 20.703125 18.636719 20.734375 18.652344 20.765625 C 18.664062 20.796875 18.671875 20.832031 18.679688 20.867188 Z M 20.683594 20.121094 C 20.675781 20.183594 20.660156 20.242188 20.628906 20.273438 C 20.542969 20.371094 20.507812 20.5 20.382812 20.554688 C 20.34375 20.570312 20.320312 20.59375 20.308594 20.621094 C 19.882812 20.699219 19.453125 20.769531 19.023438 20.820312 C 18.996094 20.730469 18.976562 20.648438 18.929688 20.574219 C 18.90625 20.519531 18.886719 20.46875 18.863281 20.417969 C 19.46875 20.3125 20.074219 20.214844 20.683594 20.121094 Z M 21.328125 20.027344 L 21.328125 20.148438 C 21.328125 20.246094 21.285156 20.335938 21.265625 20.429688 C 21.136719 20.457031 21.007812 20.480469 20.882812 20.507812 C 20.890625 20.5 20.898438 20.488281 20.90625 20.480469 C 20.992188 20.386719 21.023438 20.21875 21.035156 20.070312 C 21.132812 20.054688 21.230469 20.039062 21.328125 20.027344 Z M 21.648438 19.976562 C 21.984375 19.929688 22.324219 19.882812 22.664062 19.839844 C 22.871094 19.8125 23.074219 19.773438 23.277344 19.726562 C 23.289062 19.75 23.308594 19.773438 23.335938 19.789062 C 23.328125 19.789062 23.363281 19.863281 23.367188 19.875 C 23.367188 19.875 23.390625 19.957031 23.390625 19.957031 C 23.398438 19.972656 23.40625 19.988281 23.410156 20.003906 C 23.085938 20.058594 22.757812 20.113281 22.4375 20.179688 C 22.167969 20.238281 21.894531 20.296875 21.621094 20.351562 C 21.632812 20.316406 21.644531 20.28125 21.648438 20.230469 C 21.652344 20.15625 21.648438 20.050781 21.648438 19.976562 Z M 24.261719 19.851562 C 24.089844 19.882812 23.921875 19.917969 23.75 19.945312 C 23.738281 19.90625 23.726562 19.871094 23.710938 19.832031 C 23.707031 19.792969 23.695312 19.753906 23.671875 19.71875 C 23.667969 19.6875 23.65625 19.660156 23.644531 19.636719 C 23.8125 19.589844 23.980469 19.542969 24.144531 19.488281 C 24.152344 19.617188 24.1875 19.746094 24.261719 19.851562 Z M 22.863281 19.445312 C 22.128906 19.609375 21.359375 19.585938 20.621094 19.734375 C 19.988281 19.863281 19.285156 19.878906 18.667969 20.050781 C 18.09375 20.210938 17.503906 20.320312 16.90625 20.246094 C 16.082031 20.140625 15.863281 18.976562 15.335938 18.546875 C 14.867188 18.167969 14.289062 18.089844 13.75 17.859375 C 13.238281 17.640625 12.742188 17.453125 12.214844 17.285156 C 12.300781 17.082031 12.390625 16.878906 12.484375 16.675781 C 12.492188 16.679688 12.492188 16.683594 12.496094 16.683594 C 13.265625 16.933594 14.042969 17.273438 14.792969 17.574219 C 15.519531 17.863281 15.726562 18.382812 16.210938 18.933594 C 16.585938 19.359375 16.980469 19.703125 17.566406 19.640625 C 18.503906 19.546875 19.394531 19.441406 20.3125 19.234375 C 21.296875 19.015625 22.265625 18.902344 23.234375 18.597656 C 24.023438 18.347656 24.847656 18.082031 25.667969 17.886719 C 25.6875 18.117188 25.773438 18.339844 25.847656 18.558594 C 24.863281 18.867188 23.863281 19.226562 22.863281 19.445312 Z M 24.527344 19.636719 C 24.515625 19.617188 24.507812 19.59375 24.503906 19.574219 C 24.648438 19.535156 24.921875 19.585938 25.039062 19.585938 C 25.117188 19.585938 25.199219 19.585938 25.28125 19.589844 C 25.058594 19.664062 24.828125 19.726562 24.597656 19.777344 C 24.59375 19.726562 24.566406 19.679688 24.527344 19.644531 C 24.539062 19.652344 24.519531 19.632812 24.527344 19.636719 Z M 25.613281 17.167969 C 25.898438 17.148438 26.222656 17.105469 26.550781 17.0625 C 26.574219 17.078125 26.605469 17.089844 26.640625 17.089844 C 27.066406 17.101562 26.476562 17.371094 26.347656 17.394531 C 26.074219 17.449219 25.828125 17.503906 25.5625 17.589844 C 24.996094 17.769531 24.421875 17.917969 23.847656 18.070312 C 23.792969 17.859375 23.703125 17.65625 23.652344 17.441406 C 24.308594 17.382812 24.953125 17.214844 25.613281 17.167969 Z M 27.359375 16.988281 C 27.558594 16.984375 27.757812 16.988281 27.9375 17.015625 L 27.9375 17.019531 C 27.964844 17.183594 27.960938 17.347656 27.960938 17.511719 C 27.957031 17.757812 27.84375 17.839844 27.628906 17.925781 C 27.496094 17.976562 27.359375 18.015625 27.226562 18.058594 C 27.117188 18.097656 27.023438 18.164062 26.917969 18.207031 C 26.859375 18.019531 26.78125 17.84375 26.65625 17.683594 C 26.96875 17.617188 27.25 17.503906 27.363281 17.167969 C 27.386719 17.101562 27.382812 17.039062 27.359375 16.988281 Z M 27.5625 19.039062 C 27.679688 18.996094 27.769531 18.953125 27.871094 18.867188 C 27.898438 18.84375 27.925781 18.816406 27.953125 18.789062 C 27.984375 18.792969 28.011719 18.789062 28.035156 18.777344 C 28.09375 18.777344 28.152344 18.785156 28.183594 18.832031 C 28.296875 18.992188 28.234375 19.179688 28.148438 19.335938 C 28.035156 19.546875 27.699219 19.667969 27.476562 19.777344 C 27.398438 19.582031 27.320312 19.390625 27.246094 19.207031 C 27.347656 19.144531 27.453125 19.082031 27.5625 19.039062 Z M 27.386719 18.375 C 27.410156 18.363281 27.4375 18.355469 27.460938 18.347656 C 27.570312 18.3125 27.6875 18.273438 27.800781 18.230469 C 27.808594 18.292969 27.8125 18.359375 27.800781 18.414062 C 27.734375 18.394531 27.671875 18.382812 27.59375 18.375 C 27.523438 18.375 27.453125 18.375 27.386719 18.375 Z M 27.4375 18.695312 C 27.460938 18.695312 27.484375 18.703125 27.507812 18.703125 C 27.445312 18.730469 27.371094 18.75 27.316406 18.773438 C 27.25 18.800781 27.183594 18.839844 27.117188 18.882812 C 27.097656 18.820312 27.078125 18.757812 27.058594 18.695312 Z M 29.375 21.1875 C 29.351562 19.628906 29.085938 18.222656 28.425781 16.804688 C 28.390625 16.722656 28.316406 16.703125 28.253906 16.722656 C 27.597656 16.5625 26.796875 16.75 26.121094 16.804688 C 25.230469 16.878906 24.328125 17.066406 23.441406 17.113281 C 23.109375 16.445312 22.898438 15.660156 22.691406 14.945312 C 22.523438 14.382812 22.410156 13.726562 22.152344 13.195312 C 22.164062 13.1875 22.179688 13.183594 22.191406 13.171875 C 22.257812 13.140625 22.332031 13.109375 22.402344 13.078125 C 22.535156 13.015625 22.714844 12.949219 22.824219 12.851562 C 22.992188 12.695312 23.128906 12.453125 23.191406 12.234375 L 23.191406 12.226562 C 23.214844 12.207031 23.234375 12.183594 23.246094 12.148438 C 23.375 11.753906 23.480469 11.925781 23.746094 11.707031 C 23.957031 11.539062 24.109375 11.324219 24.015625 11.039062 C 23.730469 10.175781 23.132812 9.464844 22.8125 8.617188 C 22.808594 8.601562 22.800781 8.589844 22.792969 8.578125 C 22.789062 8.53125 22.765625 8.484375 22.707031 8.457031 C 22.453125 8.328125 22.046875 8.320312 21.9375 8.644531 C 21.847656 8.914062 21.5625 8.644531 21.421875 8.5625 C 21.359375 8.523438 21.292969 8.503906 21.226562 8.496094 C 20.085938 5.542969 16.632812 3.972656 13.703125 3.472656 C 10.320312 2.890625 6.5 4.492188 4.089844 6.800781 C 2.90625 7.9375 1.835938 9.425781 1.210938 10.945312 C 0.605469 12.40625 0.640625 14.300781 0.773438 15.847656 C 0.832031 16.558594 1.085938 17.253906 1.359375 17.910156 C 1.691406 18.722656 1.980469 19.628906 2.429688 20.382812 C 2.765625 20.941406 3.0625 21.539062 3.40625 22.101562 C 3.09375 22.179688 3.046875 22.484375 3.152344 22.824219 C 3.21875 23.058594 3.335938 23.292969 3.453125 23.503906 C 3.683594 23.910156 4.09375 24.140625 4.101562 24.660156 C 4.109375 25.167969 5.046875 25.058594 5.363281 25.0625 C 5.601562 25.0625 5.699219 25.023438 5.816406 24.804688 C 5.898438 24.648438 5.898438 24.535156 6.09375 24.476562 C 6.207031 24.441406 6.261719 24.390625 6.316406 24.289062 C 6.335938 24.257812 6.339844 24.226562 6.335938 24.199219 C 6.554688 24.210938 6.78125 24.25 7.042969 24.339844 C 7.652344 24.542969 8.210938 24.808594 8.789062 25.09375 C 9.953125 25.675781 11 25.863281 12.292969 25.863281 C 13.519531 25.863281 14.703125 25.589844 15.730469 24.867188 C 16.242188 24.507812 16.597656 24.054688 16.808594 23.523438 C 17.089844 23.578125 17.378906 23.617188 17.667969 23.628906 C 18.054688 23.636719 18.402344 23.449219 18.761719 23.320312 C 19.214844 25.058594 21.054688 25.011719 22.519531 25.484375 C 23.269531 25.730469 24.066406 25.710938 24.816406 25.914062 C 25.46875 26.09375 26.273438 26.117188 26.894531 25.828125 C 26.90625 25.828125 26.914062 25.835938 26.925781 25.835938 C 27.140625 25.839844 27.34375 25.925781 27.558594 25.925781 C 27.625 25.925781 27.671875 25.90625 27.710938 25.875 C 27.785156 25.863281 27.847656 25.824219 27.847656 25.75 C 27.847656 25.714844 27.847656 25.6875 27.847656 25.652344 C 27.867188 25.609375 27.886719 25.5625 27.910156 25.519531 C 27.910156 25.519531 27.910156 25.515625 27.910156 25.511719 C 27.929688 25.507812 27.945312 25.503906 27.960938 25.496094 C 28.027344 25.460938 28.082031 25.414062 28.136719 25.367188 C 28.1875 25.320312 28.226562 25.25 28.289062 25.214844 C 28.414062 25.136719 28.523438 25.03125 28.652344 24.949219 C 28.703125 24.917969 28.726562 24.871094 28.730469 24.820312 C 28.992188 24.621094 28.945312 24.21875 29.074219 23.875 C 29.40625 23 29.386719 22.105469 29.375 21.1875 " fill-opacity="1" fill-rule="nonzero"/></g><g clip-path="url(#f550ebd9ae)"><path fill="#f2f2f2" d="M 28.320312 17.410156 C 28.738281 18.40625 29.070312 19.5625 29.023438 20.617188 C 28.984375 21.46875 29.113281 22.308594 28.914062 23.152344 C 28.878906 23.308594 28.632812 24.527344 28.460938 24.578125 C 28.371094 24.605469 28.335938 24.679688 28.339844 24.75 C 28.269531 24.804688 28.191406 24.863281 28.113281 24.914062 C 28.019531 24.980469 27.953125 25.070312 27.867188 25.144531 C 27.878906 24.90625 27.898438 24.675781 27.921875 24.453125 C 27.964844 24.457031 28.011719 24.445312 28.054688 24.410156 C 28.707031 23.847656 28.707031 22.90625 28.707031 22.109375 C 28.707031 21.1875 28.570312 20.507812 28.324219 19.65625 C 28.449219 19.535156 28.546875 19.390625 28.585938 19.199219 C 28.625 19.015625 28.566406 18.707031 28.417969 18.570312 C 28.335938 18.492188 28.242188 18.460938 28.144531 18.449219 C 28.160156 18.332031 28.136719 18.203125 28.132812 18.09375 C 28.132812 18.074219 28.125 18.058594 28.121094 18.042969 C 28.28125 17.898438 28.324219 17.652344 28.320312 17.410156 " fill-opacity="1" fill-rule="nonzero"/></g><path fill="#ffffff" d="M 28.148438 19.335938 C 28.035156 19.546875 27.699219 19.667969 27.476562 19.777344 C 27.398438 19.582031 27.320312 19.390625 27.246094 19.207031 C 27.347656 19.144531 27.453125 19.082031 27.5625 19.039062 C 27.679688 18.996094 27.769531 18.953125 27.871094 18.867188 C 27.898438 18.84375 27.925781 18.816406 27.953125 18.789062 C 27.984375 18.792969 28.011719 18.789062 28.035156 18.777344 C 28.09375 18.777344 28.152344 18.785156 28.183594 18.832031 C 28.296875 18.992188 28.234375 19.179688 28.148438 19.335938 " fill-opacity="1" fill-rule="nonzero"/><path fill="#f2f2f2" d="M 27.9375 17.023438 C 27.964844 17.183594 27.960938 17.347656 27.960938 17.511719 C 27.960938 17.757812 27.84375 17.839844 27.628906 17.925781 C 27.496094 17.976562 27.359375 18.015625 27.226562 18.058594 C 27.117188 18.097656 27.023438 18.164062 26.917969 18.207031 C 26.859375 18.019531 26.78125 17.84375 26.65625 17.6875 C 26.96875 17.617188 27.25 17.503906 27.363281 17.171875 C 27.386719 17.097656 27.382812 17.039062 27.359375 16.992188 C 27.558594 16.984375 27.757812 16.988281 27.9375 17.011719 C 27.9375 17.015625 27.9375 17.019531 27.9375 17.023438 " fill-opacity="1" fill-rule="nonzero"/><path fill="#f2f2f2" d="M 27.582031 21.773438 C 27.671875 23.050781 27.519531 24.265625 27.503906 25.574219 C 27.492188 25.570312 27.453125 25.578125 27.433594 25.574219 C 27.378906 25.5625 27.324219 25.550781 27.269531 25.539062 C 27.296875 25.359375 27.230469 25.238281 27.164062 25.015625 C 27.097656 24.785156 27.242188 24.511719 27.253906 24.28125 C 27.304688 23.445312 27.097656 22.539062 26.949219 21.71875 C 26.878906 21.304688 26.824219 20.9375 26.710938 20.535156 C 26.632812 20.253906 26.183594 19.4375 26.328125 19.128906 C 26.523438 18.707031 26.019531 18.273438 26.007812 17.835938 C 26.007812 17.828125 26.003906 17.820312 26.003906 17.8125 C 26.089844 17.796875 26.171875 17.777344 26.257812 17.757812 C 26.265625 17.757812 26.269531 17.757812 26.277344 17.757812 C 26.285156 17.777344 26.296875 17.796875 26.316406 17.8125 C 26.699219 18.1875 26.746094 18.871094 26.933594 19.34375 C 27.226562 20.078125 27.523438 20.984375 27.582031 21.773438 " fill-opacity="1" fill-rule="nonzero"/><path fill="#e6e6e6" d="M 26.804688 24.945312 C 26.855469 25.128906 26.9375 25.316406 26.925781 25.488281 C 26.902344 25.488281 26.882812 25.496094 26.867188 25.5 C 26.832031 25.492188 26.792969 25.492188 26.753906 25.515625 C 26.183594 25.796875 25.363281 25.707031 24.761719 25.542969 C 24.234375 25.398438 23.664062 25.421875 23.125 25.265625 C 21.734375 24.867188 19.523438 24.867188 19.082031 23.1875 C 19.085938 23.171875 19.089844 23.160156 19.089844 23.140625 C 19.078125 23.039062 19.054688 22.960938 19.015625 22.867188 C 18.953125 22.726562 18.914062 22.554688 18.835938 22.421875 C 18.769531 22.308594 18.726562 22.175781 18.660156 22.0625 C 18.695312 22.054688 18.726562 22.050781 18.761719 22.042969 C 18.910156 22.023438 19.050781 22 19.199219 21.980469 C 19.359375 22.222656 19.378906 22.539062 19.503906 22.796875 C 19.703125 23.207031 19.839844 23.578125 20.144531 23.925781 C 20.324219 24.132812 20.71875 24.191406 20.960938 24.257812 C 21.5 24.40625 22.050781 24.523438 22.601562 24.625 C 23.347656 24.765625 24.082031 24.882812 24.832031 24.972656 C 25.449219 25.050781 26.207031 25.179688 26.804688 24.945312 " fill-opacity="1" fill-rule="nonzero"/><path fill="#b3b3b3" d="M 26.769531 23.027344 C 26.800781 23.199219 26.828125 23.367188 26.851562 23.539062 C 26.300781 23.21875 25.738281 22.910156 25.171875 22.628906 C 24.722656 22.40625 24.457031 22.265625 24.328125 21.738281 C 24.273438 21.511719 24.167969 21.304688 24.09375 21.082031 C 24.21875 21.054688 24.339844 21.027344 24.464844 20.996094 C 24.628906 21.433594 24.847656 21.882812 25.160156 22.230469 C 25.316406 22.402344 25.664062 22.488281 25.871094 22.589844 C 26.136719 22.722656 26.398438 22.824219 26.640625 23 C 26.683594 23.035156 26.730469 23.039062 26.769531 23.027344 " fill-opacity="1" fill-rule="nonzero"/><path fill="#e6e6e6" d="M 26.640625 17.089844 C 27.066406 17.101562 26.472656 17.371094 26.347656 17.398438 C 26.074219 17.449219 25.828125 17.507812 25.5625 17.59375 C 24.996094 17.769531 24.421875 17.917969 23.847656 18.070312 C 23.792969 17.859375 23.703125 17.65625 23.648438 17.441406 C 24.308594 17.382812 24.949219 17.214844 25.613281 17.171875 C 25.898438 17.148438 26.222656 17.105469 26.550781 17.0625 C 26.574219 17.078125 26.605469 17.089844 26.640625 17.089844 " fill-opacity="1" fill-rule="nonzero"/><path fill="#f2f2f2" d="M 26 19.675781 C 26.046875 19.839844 26.113281 20 26.183594 20.160156 C 25.207031 20.46875 24.203125 20.730469 23.207031 20.96875 C 22.03125 21.246094 20.808594 21.296875 19.617188 21.570312 C 18.453125 21.839844 17.234375 21.925781 16.054688 22.144531 C 15.339844 22.273438 14.640625 22.3125 13.90625 22.269531 C 13.375 22.242188 11.980469 21.902344 11.632812 21.46875 C 11.550781 21.371094 11.4375 21.410156 11.378906 21.496094 C 11.308594 21.507812 11.238281 21.515625 11.164062 21.511719 C 11.125 21.511719 11.078125 21.507812 11.042969 21.488281 C 11.003906 21.472656 11.019531 21.480469 11.019531 21.449219 C 11.023438 21.425781 11.019531 21.40625 11.011719 21.386719 C 11.011719 21.382812 11.015625 21.382812 11.015625 21.378906 C 11.058594 21.210938 11.140625 21.058594 11.167969 20.882812 C 11.191406 20.753906 11.203125 20.625 11.210938 20.492188 C 11.359375 20.554688 11.519531 20.597656 11.6875 20.640625 C 11.632812 20.734375 11.597656 20.84375 11.59375 20.960938 C 11.589844 21.167969 11.886719 21.179688 11.929688 20.996094 C 12.902344 21.335938 13.742188 21.78125 14.8125 21.734375 C 16.039062 21.683594 17.417969 21.527344 18.601562 21.230469 C 19.808594 20.929688 21.082031 20.886719 22.292969 20.582031 C 23.515625 20.277344 24.84375 20.203125 26 19.675781 " fill-opacity="1" fill-rule="nonzero"/><path fill="#e6e6e6" d="M 25.9375 18.890625 C 25.953125 18.980469 25.960938 19.070312 25.949219 19.152344 C 25.945312 19.210938 25.945312 19.269531 25.945312 19.324219 C 25.941406 19.328125 25.9375 19.328125 25.929688 19.332031 C 25.90625 19.296875 25.863281 19.273438 25.808594 19.269531 C 25.515625 19.253906 25.226562 19.242188 24.933594 19.242188 C 24.921875 19.242188 24.910156 19.242188 24.902344 19.242188 C 25.25 19.121094 25.597656 19 25.9375 18.890625 " fill-opacity="1" fill-rule="nonzero"/><path fill="#f2f2f2" d="M 25.671875 17.890625 C 25.6875 18.117188 25.769531 18.339844 25.847656 18.558594 C 24.863281 18.867188 23.863281 19.226562 22.859375 19.445312 C 22.128906 19.609375 21.359375 19.585938 20.621094 19.734375 C 19.988281 19.863281 19.285156 19.878906 18.671875 20.050781 C 18.09375 20.207031 17.503906 20.320312 16.90625 20.246094 C 16.082031 20.140625 15.863281 18.976562 15.335938 18.546875 C 14.871094 18.167969 14.289062 18.089844 13.75 17.859375 C 13.238281 17.644531 12.742188 17.453125 12.214844 17.285156 C 12.300781 17.082031 12.386719 16.878906 12.484375 16.675781 C 12.492188 16.679688 12.492188 16.683594 12.496094 16.683594 C 13.265625 16.933594 14.042969 17.269531 14.792969 17.570312 C 15.519531 17.863281 15.726562 18.378906 16.210938 18.933594 C 16.585938 19.359375 16.980469 19.703125 17.566406 19.644531 C 18.503906 19.546875 19.394531 19.4375 20.3125 19.234375 C 21.296875 19.015625 22.261719 18.90625 23.234375 18.597656 C 24.023438 18.347656 24.851562 18.082031 25.671875 17.890625 " fill-opacity="1" fill-rule="nonzero"/><path fill="#b3b3b3" d="M 24.148438 19.488281 C 24.152344 19.621094 24.1875 19.75 24.261719 19.851562 C 24.09375 19.882812 23.921875 19.917969 23.75 19.945312 C 23.738281 19.910156 23.726562 19.871094 23.710938 19.832031 C 23.707031 19.792969 23.695312 19.753906 23.671875 19.71875 C 23.667969 19.6875 23.65625 19.664062 23.644531 19.636719 C 23.8125 19.589844 23.980469 19.542969 24.148438 19.488281 " fill-opacity="1" fill-rule="nonzero"/><path fill="#f2f2f2" d="M 23.417969 10.527344 C 23.53125 10.71875 23.773438 11.179688 23.613281 11.375 C 23.492188 11.527344 23.40625 11.484375 23.320312 11.472656 C 23.289062 11.441406 23.25 11.417969 23.195312 11.414062 C 23.082031 11.410156 22.972656 11.359375 22.859375 11.320312 C 22.867188 11.253906 22.863281 11.183594 22.84375 11.109375 C 22.75 10.761719 22.5625 10.425781 22.359375 10.132812 C 22.136719 9.804688 22.023438 9.445312 21.875 9.089844 C 21.980469 9.082031 22.09375 9.058594 22.167969 8.984375 C 22.285156 8.867188 22.292969 8.660156 22.496094 8.738281 C 22.738281 9.371094 23.082031 9.9375 23.417969 10.527344 " fill-opacity="1" fill-rule="nonzero"/><path fill="#b3b3b3" d="M 23.480469 18.09375 C 23.484375 18.121094 23.492188 18.144531 23.5 18.164062 C 23.394531 18.195312 23.292969 18.226562 23.1875 18.257812 C 22.929688 17.269531 22.515625 16.3125 22.210938 15.324219 C 22.078125 14.894531 21.890625 14.46875 21.746094 14.042969 C 21.683594 13.859375 21.582031 13.675781 21.523438 13.488281 C 21.484375 13.371094 21.644531 13.308594 21.8125 13.273438 C 21.8125 13.273438 21.8125 13.277344 21.8125 13.277344 C 22.160156 13.933594 22.246094 14.796875 22.511719 15.503906 C 22.738281 16.105469 22.863281 16.742188 23.160156 17.320312 C 23.179688 17.355469 23.199219 17.375 23.226562 17.386719 C 23.242188 17.414062 23.265625 17.4375 23.300781 17.453125 C 23.328125 17.589844 23.367188 17.722656 23.410156 17.855469 C 23.4375 17.933594 23.472656 18.007812 23.480469 18.09375 " fill-opacity="1" fill-rule="nonzero"/><path fill="#b3b3b3" d="M 22.886719 11.6875 C 22.925781 11.703125 22.949219 11.710938 22.988281 11.722656 C 22.953125 11.824219 22.878906 11.933594 22.878906 12.054688 C 22.878906 12.078125 22.851562 12.101562 22.839844 12.144531 C 22.800781 12.289062 22.683594 12.53125 22.554688 12.613281 C 22.359375 12.734375 22.128906 12.835938 21.914062 12.910156 C 21.890625 12.914062 21.867188 12.917969 21.84375 12.921875 C 21.800781 12.894531 21.746094 12.878906 21.671875 12.878906 C 20.660156 12.878906 19.535156 13.160156 18.4375 13.226562 C 18.910156 13.03125 19.457031 12.878906 19.882812 12.8125 C 20.316406 12.746094 21.179688 12.480469 21.578125 12.074219 C 21.582031 12.074219 21.585938 12.074219 21.585938 12.074219 C 21.917969 12.089844 22.472656 11.949219 22.726562 11.640625 C 22.738281 11.644531 22.746094 11.648438 22.746094 11.648438 C 22.792969 11.664062 22.839844 11.667969 22.886719 11.6875 " fill-opacity="1" fill-rule="nonzero"/><path fill="#e6e6e6" d="M 22.472656 17.085938 C 22.574219 17.386719 22.671875 17.6875 22.757812 17.992188 C 22.515625 17.917969 22.199219 17.664062 22.035156 17.527344 C 21.773438 17.308594 21.691406 16.945312 21.601562 16.632812 C 21.492188 16.25 21.183594 16.023438 20.84375 15.871094 C 20.847656 15.730469 20.855469 15.589844 20.867188 15.441406 C 20.992188 15.496094 21.121094 15.6875 21.214844 15.757812 C 21.320312 15.839844 21.429688 15.902344 21.535156 15.984375 C 21.640625 16.074219 21.628906 16.15625 21.695312 16.261719 C 21.910156 16.59375 22 16.871094 22.363281 17.066406 C 22.398438 17.089844 22.4375 17.09375 22.472656 17.085938 " fill-opacity="1" fill-rule="nonzero"/><path fill="#f2f2f2" d="M 21.640625 10.09375 C 21.710938 10.015625 21.707031 9.929688 21.683594 9.835938 C 21.679688 9.824219 21.675781 9.808594 21.671875 9.796875 C 21.671875 9.789062 21.667969 9.777344 21.667969 9.761719 C 21.65625 9.722656 21.628906 9.6875 21.601562 9.652344 C 21.546875 9.589844 21.460938 9.53125 21.371094 9.535156 C 21.332031 9.535156 21.289062 9.542969 21.253906 9.558594 C 21.167969 9.554688 21.074219 9.609375 21.070312 9.722656 C 21.066406 9.855469 21.0625 9.960938 21.183594 10.042969 C 21.207031 10.058594 21.242188 10.070312 21.277344 10.066406 C 21.316406 10.113281 21.363281 10.144531 21.421875 10.160156 C 21.503906 10.179688 21.585938 10.152344 21.640625 10.09375 Z M 22.472656 11.058594 C 22.644531 11.484375 22.132812 11.671875 21.785156 11.71875 C 21.8125 11.574219 21.777344 11.414062 21.652344 11.25 C 21.652344 11.246094 21.652344 11.242188 21.648438 11.242188 C 21.464844 10.890625 21.234375 10.59375 21.078125 10.222656 C 20.960938 9.941406 20.90625 9.65625 20.898438 9.351562 C 21.113281 8.953125 21.335938 8.929688 21.5625 9.269531 C 21.570312 9.328125 21.585938 9.386719 21.609375 9.4375 C 21.777344 9.785156 21.9375 10.121094 22.15625 10.441406 C 22.277344 10.621094 22.394531 10.859375 22.472656 11.058594 " fill-opacity="1" fill-rule="nonzero"/><path fill="#000000" d="M 21.671875 9.796875 C 21.675781 9.808594 21.679688 9.824219 21.683594 9.835938 C 21.707031 9.929688 21.710938 10.015625 21.640625 10.09375 C 21.585938 10.152344 21.503906 10.179688 21.421875 10.160156 C 21.363281 10.144531 21.316406 10.113281 21.277344 10.066406 C 21.242188 10.070312 21.207031 10.058594 21.183594 10.042969 C 21.0625 9.960938 21.066406 9.855469 21.070312 9.722656 C 21.074219 9.609375 21.167969 9.554688 21.253906 9.558594 C 21.289062 9.542969 21.332031 9.535156 21.371094 9.535156 C 21.460938 9.53125 21.546875 9.589844 21.601562 9.652344 C 21.628906 9.6875 21.65625 9.722656 21.667969 9.761719 C 21.667969 9.777344 21.671875 9.789062 21.671875 9.796875 Z M 21.121094 9.828125 C 21.117188 9.839844 21.121094 9.839844 21.121094 9.828125 " fill-opacity="1" fill-rule="nonzero"/><path fill="#4d4d4d" d="M 21.328125 20.027344 C 21.328125 20.0625 21.328125 20.109375 21.328125 20.148438 C 21.328125 20.246094 21.285156 20.335938 21.265625 20.429688 C 21.136719 20.457031 21.007812 20.484375 20.882812 20.507812 C 20.890625 20.5 20.898438 20.488281 20.90625 20.480469 C 20.992188 20.386719 21.023438 20.21875 21.035156 20.070312 C 21.132812 20.054688 21.230469 20.039062 21.328125 20.027344 " fill-opacity="1" fill-rule="nonzero"/><path fill="#f2f2f2" d="M 21.257812 11.332031 C 21.886719 11.945312 20.011719 12.40625 19.789062 12.480469 C 19.457031 12.589844 19.117188 12.648438 18.785156 12.789062 C 18.386719 12.957031 17.980469 13.097656 17.578125 13.253906 C 17.082031 13.453125 16.671875 13.808594 16.175781 14.003906 C 16.097656 13.824219 16.019531 13.644531 15.953125 13.460938 C 15.945312 13.441406 15.933594 13.425781 15.921875 13.410156 C 16.660156 13.058594 17.4375 12.800781 18.171875 12.4375 C 19.164062 11.941406 20.210938 11.667969 21.257812 11.332031 " fill-opacity="1" fill-rule="nonzero"/><path fill="#cccccc" d="M 21.125 11.011719 C 20.875 11.09375 20.628906 11.167969 20.382812 11.246094 C 20.394531 11.214844 20.398438 11.183594 20.398438 11.140625 C 20.398438 11.007812 20.351562 10.875 20.296875 10.753906 C 20.183594 10.523438 20.183594 10.289062 20.089844 10.058594 C 20.042969 9.945312 19.882812 9.394531 20.066406 9.40625 C 20.277344 9.421875 20.386719 9.308594 20.554688 9.246094 C 20.472656 9.886719 20.804688 10.464844 21.125 11.011719 " fill-opacity="1" fill-rule="nonzero"/><path fill="#1d6842" d="M 10.054688 23.003906 C 10.136719 23.160156 10.15625 23.554688 10.042969 23.703125 C 9.886719 23.914062 9.742188 24.054688 9.46875 24.058594 C 9.148438 24.097656 8.847656 23.90625 8.722656 23.605469 C 8.601562 23.324219 8.578125 22.929688 8.886719 22.746094 C 9.070312 22.632812 9.324219 22.613281 9.539062 22.625 C 9.769531 22.640625 9.953125 22.804688 10.054688 23.003906 Z M 6.949219 18.707031 C 7.035156 18.285156 7.328125 17.605469 7.75 17.410156 C 8.410156 17.109375 9.023438 16.910156 9.757812 16.890625 C 9.980469 16.882812 9.980469 17.230469 9.757812 17.234375 C 9.164062 17.25 8.695312 17.417969 8.148438 17.617188 C 7.671875 17.789062 7.382812 18.316406 7.285156 18.800781 C 7.238281 19.015625 6.90625 18.925781 6.949219 18.707031 Z M 17.667969 5.191406 C 16.902344 4.738281 16.078125 4.539062 15.242188 4.265625 C 14.429688 4.003906 13.671875 3.746094 12.804688 3.738281 C 9.511719 3.710938 6.183594 5.019531 3.9375 7.453125 C 2.859375 8.621094 1.640625 10.230469 1.308594 11.816406 C 1.003906 13.246094 0.859375 15.144531 1.257812 16.570312 C 1.492188 17.414062 1.867188 18.171875 2.234375 18.960938 C 2.515625 19.574219 2.667969 20.226562 3.070312 20.789062 C 3.769531 21.765625 4.1875 23.144531 5.101562 23.972656 C 6.015625 23.832031 6.601562 23.746094 7.503906 24.121094 C 8.5625 24.558594 9.535156 25.121094 10.648438 25.410156 C 12.90625 26.003906 16.503906 25.164062 16.695312 22.433594 C 16.582031 22.453125 16.46875 22.472656 16.355469 22.492188 C 16.214844 23.585938 15.632812 24.136719 14.847656 24.808594 C 14.109375 25.441406 12.90625 25.347656 12.027344 25.347656 C 11.105469 25.347656 10.023438 25.117188 9.21875 24.65625 C 8.191406 24.066406 6.730469 23.277344 5.527344 23.679688 C 5.3125 23.75 5.226562 23.417969 5.433594 23.347656 C 7.234375 22.746094 9.097656 24.386719 10.75 24.839844 C 12.683594 25.363281 15.644531 24.945312 16.003906 22.546875 C 15.679688 22.589844 15.359375 22.617188 15.039062 22.625 C 14.875 22.625 14.714844 22.625 14.558594 22.617188 C 14.585938 22.902344 14.398438 23.222656 14.097656 23.226562 C 13.871094 23.230469 13.632812 23.238281 13.429688 23.113281 C 13.246094 23.003906 13.210938 22.65625 13.179688 22.472656 C 13.179688 22.457031 13.183594 22.453125 13.183594 22.4375 C 13.050781 22.410156 12.917969 22.371094 12.785156 22.328125 C 12.359375 22.199219 11.835938 22.132812 11.496094 21.824219 C 11.191406 21.90625 10.65625 21.867188 10.675781 21.445312 C 10.675781 21.433594 10.683594 21.425781 10.683594 21.414062 C 10.242188 21.605469 9.597656 21.566406 9.234375 21.445312 C 8.632812 21.25 8.277344 20.5625 8.265625 19.957031 C 8.253906 19.136719 8.652344 18.554688 9.46875 18.382812 C 10.035156 18.265625 10.683594 18.566406 11.023438 19.023438 C 11.113281 18.875 11.203125 18.734375 11.285156 18.585938 C 11.289062 18.496094 11.351562 18.4375 11.425781 18.417969 C 11.472656 18.289062 11.515625 18.164062 11.5625 18.035156 C 11.511719 18.003906 11.484375 17.941406 11.488281 17.878906 C 11.484375 17.875 11.480469 17.875 11.472656 17.871094 C 11.390625 17.800781 11.324219 17.714844 11.238281 17.640625 C 11.144531 17.5625 11.023438 17.519531 10.917969 17.457031 C 10.726562 17.335938 10.480469 17.328125 10.273438 17.242188 C 10.070312 17.152344 10.246094 16.855469 10.449219 16.941406 C 10.59375 17.003906 10.75 17.011719 10.894531 17.0625 C 11.023438 17.113281 11.132812 17.183594 11.25 17.242188 C 11.4375 17.335938 11.554688 17.484375 11.707031 17.617188 C 11.804688 17.339844 11.898438 17.0625 12 16.785156 C 12.1875 16.304688 12.613281 15.789062 12.910156 15.371094 C 13.359375 14.742188 14.027344 14.160156 14.664062 13.730469 C 15.707031 13.03125 16.886719 12.691406 17.996094 12.140625 C 18.585938 11.847656 19.1875 11.628906 19.796875 11.429688 C 19.804688 11.40625 19.8125 11.382812 19.832031 11.355469 C 19.890625 11.28125 20.078125 11.160156 20.042969 11.058594 C 20 10.9375 19.882812 10.722656 19.855469 10.570312 C 19.84375 10.476562 19.828125 10.378906 19.8125 10.285156 C 19.683594 9.980469 19.625 9.667969 19.597656 9.339844 C 19.582031 9.074219 19.890625 9.0625 20.066406 9.0625 C 20.160156 9.0625 20.289062 9.003906 20.425781 8.949219 C 20.339844 8.6875 20.046875 8.265625 19.90625 8.0625 C 19.734375 7.804688 19.46875 7.453125 19.25 7.226562 C 18.835938 6.808594 18.488281 6.390625 17.996094 6.058594 C 17.816406 5.9375 17.988281 5.636719 18.171875 5.761719 C 18.707031 6.121094 19.242188 6.585938 19.613281 7.128906 C 19.949219 7.628906 20.574219 8.1875 20.746094 8.796875 C 20.800781 8.753906 20.863281 8.722656 20.929688 8.703125 C 20.929688 8.691406 20.929688 8.683594 20.929688 8.671875 C 20.363281 7.132812 19.046875 6.003906 17.667969 5.191406 " fill-opacity="1" fill-rule="nonzero"/><path fill="#f2f2f2" d="M 20.511719 17.277344 C 20.609375 17.679688 20.875 18.292969 20.730469 18.707031 C 20.722656 18.734375 20.71875 18.757812 20.722656 18.78125 C 20.707031 18.78125 20.695312 18.785156 20.679688 18.789062 C 20.429688 18.851562 20.179688 18.90625 19.929688 18.957031 C 20.066406 18.53125 20.03125 18.007812 19.976562 17.601562 C 19.929688 17.253906 19.929688 16.792969 19.703125 16.488281 C 19.722656 16.488281 19.746094 16.488281 19.765625 16.484375 C 20.296875 16.40625 20.433594 16.933594 20.511719 17.277344 " fill-opacity="1" fill-rule="nonzero"/><path fill="#cccccc" d="M 20.683594 20.121094 C 20.675781 20.183594 20.660156 20.242188 20.628906 20.273438 C 20.542969 20.371094 20.507812 20.5 20.382812 20.554688 C 20.34375 20.570312 20.320312 20.59375 20.308594 20.621094 C 19.882812 20.699219 19.453125 20.769531 19.023438 20.820312 C 18.996094 20.730469 18.976562 20.648438 18.925781 20.574219 C 18.90625 20.519531 18.886719 20.46875 18.863281 20.417969 C 19.46875 20.3125 20.074219 20.214844 20.683594 20.121094 " fill-opacity="1" fill-rule="nonzero"/><path fill="#4d4d4d" d="M 20.289062 21.8125 C 20.449219 21.789062 20.613281 21.765625 20.773438 21.738281 C 20.648438 21.929688 20.519531 22.117188 20.351562 22.277344 C 20.203125 22.417969 20.011719 22.511719 19.820312 22.585938 C 19.792969 22.496094 19.765625 22.40625 19.738281 22.316406 C 19.753906 22.308594 19.769531 22.300781 19.785156 22.289062 C 19.875 22.214844 19.980469 22.15625 20.074219 22.082031 C 20.167969 22.007812 20.234375 21.917969 20.289062 21.8125 " fill-opacity="1" fill-rule="nonzero"/><path fill="#4d4d4d" d="M 19.238281 15.683594 C 19.242188 15.625 19.234375 15.5625 19.230469 15.5 C 19.230469 15.265625 19.046875 14.914062 18.773438 14.914062 C 18.640625 14.914062 18.546875 15.046875 18.492188 15.148438 C 18.433594 15.253906 18.339844 15.328125 18.320312 15.453125 C 18.273438 15.746094 18.480469 16.007812 18.773438 16.03125 C 18.777344 16.03125 18.777344 16.027344 18.78125 16.027344 C 18.808594 16.035156 18.839844 16.039062 18.875 16.023438 C 18.976562 15.984375 19.105469 15.96875 19.164062 15.863281 C 19.195312 15.800781 19.230469 15.753906 19.238281 15.683594 Z M 20.496094 15.828125 C 20.496094 16.023438 20.507812 16.207031 20.519531 16.390625 C 20.425781 16.261719 20.304688 16.160156 20.109375 16.121094 C 19.855469 16.074219 19.488281 16.109375 19.21875 16.203125 C 18.863281 16.160156 18.425781 16.355469 18.289062 16.691406 C 18.164062 16.980469 18.144531 17.304688 18.148438 17.617188 C 18.152344 17.796875 18.207031 18.242188 18.121094 18.492188 C 17.816406 17.832031 17.417969 17.203125 17.230469 16.515625 C 17.089844 16 16.875 15.503906 16.640625 15.015625 C 16.921875 14.730469 17.1875 14.4375 17.445312 14.132812 C 17.863281 13.636719 18.304688 13.636719 18.882812 13.503906 C 19.320312 13.402344 19.753906 13.453125 20.195312 13.382812 C 20.519531 13.332031 20.816406 13.285156 21.121094 13.253906 C 20.683594 13.984375 20.484375 14.984375 20.496094 15.828125 " fill-opacity="1" fill-rule="nonzero"/><path fill="#cccccc" d="M 19.613281 17.480469 C 19.6875 17.933594 19.761719 18.609375 19.519531 19.039062 C 19.21875 19.09375 18.917969 19.144531 18.613281 19.191406 C 18.539062 19.199219 18.464844 19.210938 18.398438 19.222656 C 18.394531 19.214844 18.398438 19.203125 18.394531 19.195312 C 18.359375 19.082031 18.320312 18.972656 18.277344 18.863281 C 18.667969 18.46875 18.457031 17.699219 18.515625 17.207031 C 18.507812 17.035156 18.554688 16.882812 18.660156 16.757812 C 18.882812 16.519531 19.148438 16.535156 19.457031 16.804688 C 19.59375 17.046875 19.570312 17.222656 19.613281 17.480469 " fill-opacity="1" fill-rule="nonzero"/><path fill="#000000" d="M 18.894531 15.652344 C 18.890625 15.601562 18.890625 15.550781 18.886719 15.5 C 18.886719 15.4375 18.855469 15.34375 18.800781 15.292969 C 18.761719 15.347656 18.730469 15.425781 18.6875 15.46875 C 18.625 15.539062 18.675781 15.679688 18.773438 15.6875 C 18.777344 15.6875 18.785156 15.691406 18.789062 15.691406 C 18.808594 15.683594 18.894531 15.660156 18.894531 15.652344 Z M 19.230469 15.5 C 19.234375 15.5625 19.242188 15.625 19.238281 15.683594 C 19.230469 15.753906 19.195312 15.800781 19.164062 15.863281 C 19.105469 15.96875 18.976562 15.984375 18.875 16.023438 C 18.839844 16.039062 18.808594 16.035156 18.78125 16.027344 C 18.777344 16.027344 18.777344 16.03125 18.773438 16.03125 C 18.480469 16.007812 18.273438 15.746094 18.320312 15.453125 C 18.339844 15.328125 18.433594 15.253906 18.492188 15.148438 C 18.546875 15.046875 18.640625 14.914062 18.773438 14.914062 C 19.046875 14.914062 19.230469 15.265625 19.230469 15.5 " fill-opacity="1" fill-rule="nonzero"/><path fill="#e6e6e6" d="M 18.679688 20.867188 C 18.542969 20.882812 18.40625 20.898438 18.273438 20.917969 C 18.226562 20.808594 18.1875 20.695312 18.140625 20.585938 C 18.140625 20.570312 18.140625 20.554688 18.136719 20.539062 C 18.261719 20.519531 18.390625 20.496094 18.519531 20.476562 C 18.542969 20.539062 18.570312 20.601562 18.597656 20.664062 C 18.613281 20.699219 18.640625 20.734375 18.652344 20.765625 C 18.664062 20.796875 18.671875 20.832031 18.679688 20.867188 " fill-opacity="1" fill-rule="nonzero"/><path fill="#cccccc" d="M 18.625 22.855469 C 18.640625 22.894531 18.667969 22.9375 18.6875 22.980469 C 18.398438 23.085938 18.097656 23.25 17.796875 23.28125 C 17.527344 23.3125 17.199219 23.253906 16.921875 23.195312 C 16.992188 22.933594 17.035156 22.65625 17.046875 22.367188 C 17.453125 22.285156 17.863281 22.199219 18.265625 22.125 C 18.273438 22.128906 18.273438 22.136719 18.285156 22.144531 C 18.402344 22.210938 18.445312 22.414062 18.5 22.53125 C 18.550781 22.636719 18.578125 22.746094 18.625 22.855469 " fill-opacity="1" fill-rule="nonzero"/><path fill="#e6e6e6" d="M 18.054688 19.265625 C 17.878906 19.28125 17.714844 19.285156 17.558594 19.273438 C 17.554688 19.253906 17.554688 19.230469 17.542969 19.210938 C 17.128906 18.320312 16.726562 17.320312 16.414062 16.386719 C 16.113281 15.484375 15.648438 14.664062 15.320312 13.777344 C 15.316406 13.761719 15.308594 13.75 15.296875 13.738281 C 15.40625 13.675781 15.515625 13.617188 15.621094 13.558594 C 15.953125 14.460938 16.367188 15.347656 16.757812 16.230469 C 17.191406 17.210938 17.746094 18.238281 18.054688 19.265625 " fill-opacity="1" fill-rule="nonzero"/><path fill="#cccccc" d="M 17.859375 20.800781 C 17.882812 20.851562 17.902344 20.90625 17.921875 20.960938 C 17.636719 21 17.355469 21.042969 17.070312 21.085938 C 17.058594 20.90625 17.015625 20.734375 16.9375 20.574219 C 17.207031 20.621094 17.496094 20.617188 17.796875 20.585938 C 17.800781 20.609375 17.796875 20.640625 17.804688 20.664062 C 17.816406 20.707031 17.84375 20.753906 17.859375 20.800781 " fill-opacity="1" fill-rule="nonzero"/><path fill="#4d4d4d" d="M 16.949219 18.726562 C 17.019531 18.882812 17.085938 19.03125 17.15625 19.183594 C 17.011719 19.132812 16.867188 19.050781 16.71875 18.9375 C 16.742188 18.925781 16.765625 18.914062 16.789062 18.898438 C 16.855469 18.851562 16.90625 18.792969 16.949219 18.726562 " fill-opacity="1" fill-rule="nonzero"/><path fill="#1d6842" d="M 16.730469 21.136719 C 16.617188 21.152344 16.503906 21.171875 16.390625 21.1875 C 16.390625 21.101562 16.386719 21.023438 16.355469 20.945312 C 16.285156 20.757812 16.226562 20.570312 16.136719 20.386719 C 16.042969 20.1875 15.746094 20.363281 15.839844 20.558594 C 15.914062 20.714844 15.96875 20.875 16.023438 21.035156 C 16.046875 21.109375 16.035156 21.175781 16.019531 21.242188 C 15.71875 21.28125 15.425781 21.320312 15.125 21.355469 C 14.070312 21.476562 13.253906 21.117188 12.332031 20.773438 C 12.378906 20.785156 12.425781 20.800781 12.46875 20.8125 C 13.09375 21 13.828125 21.230469 14.402344 20.796875 C 14.738281 20.546875 14.546875 19.808594 14.414062 19.496094 C 14.179688 18.957031 13.03125 18.902344 12.601562 18.71875 C 12.628906 18.667969 12.671875 18.621094 12.6875 18.578125 C 12.730469 18.484375 12.785156 18.40625 12.8125 18.304688 C 12.835938 18.21875 12.867188 18.128906 12.921875 18.058594 C 12.957031 18.011719 12.972656 17.960938 12.988281 17.914062 C 13.3125 18.035156 13.636719 18.171875 13.949219 18.328125 C 14.257812 18.484375 14.585938 18.480469 14.894531 18.671875 C 15.246094 18.890625 15.558594 19.453125 15.78125 19.785156 C 15.996094 20.109375 16.238281 20.3125 16.5 20.441406 C 16.492188 20.476562 16.496094 20.519531 16.527344 20.558594 C 16.652344 20.738281 16.71875 20.925781 16.730469 21.136719 " fill-opacity="1" fill-rule="nonzero"/><path fill="#1d6842" d="M 17.082031 13.964844 C 16.878906 14.191406 16.6875 14.441406 16.480469 14.671875 C 16.425781 14.554688 16.371094 14.4375 16.316406 14.320312 C 16.566406 14.21875 16.828125 14.097656 17.082031 13.964844 " fill-opacity="1" fill-rule="nonzero"/><path fill="#4d4d4d" d="M 16.144531 16.660156 C 16.011719 16.65625 15.875 16.691406 15.753906 16.757812 C 15.78125 16.511719 15.832031 16.265625 15.910156 16.019531 C 15.96875 16.171875 16.03125 16.324219 16.082031 16.476562 C 16.097656 16.535156 16.125 16.597656 16.144531 16.660156 " fill-opacity="1" fill-rule="nonzero"/><path fill="#1d6842" d="M 15.722656 15.574219 C 15.707031 15.589844 15.691406 15.613281 15.675781 15.640625 C 15.542969 15.988281 15.410156 16.3125 15.386719 16.691406 C 15.371094 16.933594 15.378906 17.1875 15.40625 17.4375 C 15.109375 17.273438 14.753906 17.1875 14.453125 17.066406 C 14.171875 16.953125 13.878906 16.835938 13.589844 16.71875 C 13.664062 16.609375 13.726562 16.488281 13.789062 16.375 C 13.964844 16.0625 14.140625 15.808594 14.359375 15.523438 C 14.507812 15.335938 14.65625 15.09375 14.871094 14.972656 C 15.03125 14.882812 15.195312 14.824219 15.347656 14.730469 C 15.472656 15.011719 15.601562 15.292969 15.722656 15.574219 " fill-opacity="1" fill-rule="nonzero"/><path fill="#f2f2f2" d="M 15.207031 14.414062 C 15.207031 14.417969 15.207031 14.417969 15.207031 14.417969 C 15.050781 14.542969 14.789062 14.625 14.613281 14.726562 C 14.390625 14.851562 14.285156 15.105469 14.113281 15.28125 C 13.957031 15.445312 13.808594 15.632812 13.6875 15.828125 C 13.535156 16.066406 13.445312 16.371094 13.253906 16.59375 C 13.050781 16.515625 12.847656 16.4375 12.644531 16.371094 C 12.820312 16.054688 13.023438 15.753906 13.269531 15.480469 C 13.796875 14.886719 14.351562 14.355469 15.007812 13.917969 C 15.070312 14.089844 15.140625 14.253906 15.207031 14.414062 " fill-opacity="1" fill-rule="nonzero"/><path fill="#ffffff" d="M 14.15625 22.835938 C 14.128906 22.917969 13.960938 22.882812 13.886719 22.882812 C 13.765625 22.882812 13.664062 22.882812 13.605469 22.765625 C 13.566406 22.691406 13.546875 22.605469 13.53125 22.515625 C 13.753906 22.554688 13.972656 22.585938 14.203125 22.601562 C 14.253906 22.660156 14.183594 22.769531 14.15625 22.835938 " fill-opacity="1" fill-rule="nonzero"/><path fill="#f2f2f2" d="M 13.523438 20.226562 C 13.726562 20.019531 13.6875 19.722656 13.496094 19.523438 C 13.261719 19.300781 12.898438 19.371094 12.671875 19.570312 C 12.402344 19.808594 12.539062 20.199219 12.820312 20.351562 C 13.050781 20.480469 13.347656 20.410156 13.523438 20.226562 Z M 14.054688 19.621094 C 14.167969 19.707031 14.332031 20.425781 14.121094 20.582031 C 13.757812 20.859375 12.96875 20.609375 12.558594 20.480469 C 12.265625 20.386719 11.253906 20.285156 11.042969 19.96875 C 11.132812 19.746094 11.117188 19.507812 11.253906 19.300781 C 11.34375 19.164062 11.429688 19.023438 11.511719 18.882812 C 11.636719 18.953125 11.785156 19 11.914062 19.058594 C 12.117188 19.15625 12.339844 19.191406 12.511719 19.050781 C 12.820312 19.175781 13.101562 19.257812 13.429688 19.335938 C 13.664062 19.386719 13.863281 19.472656 14.054688 19.621094 " fill-opacity="1" fill-rule="nonzero"/><path fill="#000000" d="M 13.28125 19.984375 C 13.335938 19.90625 13.324219 19.839844 13.253906 19.765625 C 13.160156 19.675781 12.96875 19.746094 12.894531 19.832031 C 12.8125 19.933594 12.949219 20.054688 13.046875 20.070312 C 13.121094 20.085938 13.238281 20.050781 13.28125 19.984375 Z M 13.496094 19.523438 C 13.6875 19.722656 13.726562 20.019531 13.523438 20.226562 C 13.347656 20.410156 13.050781 20.480469 12.820312 20.351562 C 12.539062 20.199219 12.402344 19.808594 12.671875 19.570312 C 12.898438 19.371094 13.261719 19.300781 13.496094 19.523438 " fill-opacity="1" fill-rule="nonzero"/><path fill="#f2f2f2" d="M 13.253906 19.765625 C 13.324219 19.839844 13.335938 19.90625 13.28125 19.984375 C 13.238281 20.050781 13.121094 20.085938 13.046875 20.070312 C 12.949219 20.054688 12.8125 19.933594 12.894531 19.832031 C 12.96875 19.746094 13.160156 19.675781 13.253906 19.765625 " fill-opacity="1" fill-rule="nonzero"/><path fill="#f2f2f2" d="M 12.648438 17.792969 C 12.585938 17.929688 12.523438 18.070312 12.480469 18.210938 C 12.417969 18.410156 12.214844 18.585938 12.226562 18.800781 C 12.152344 18.804688 12.070312 18.753906 12 18.71875 C 11.960938 18.699219 11.820312 18.65625 11.722656 18.609375 C 11.84375 18.277344 11.964844 17.941406 12.089844 17.605469 C 12.277344 17.664062 12.464844 17.726562 12.648438 17.792969 " fill-opacity="1" fill-rule="nonzero"/><path fill="#1b442b" d="M 10.882812 20.296875 C 10.882812 20.308594 10.878906 20.320312 10.875 20.328125 C 10.875 20.507812 10.855469 20.683594 10.828125 20.859375 C 10.8125 20.871094 10.796875 20.882812 10.785156 20.90625 C 10.640625 21.164062 10.0625 21.199219 9.816406 21.21875 C 9.1875 21.273438 8.796875 20.726562 8.660156 20.199219 C 8.496094 19.5625 8.761719 18.960938 9.402344 18.746094 C 9.910156 18.578125 10.566406 18.894531 10.816406 19.328125 C 10.820312 19.339844 10.828125 19.34375 10.839844 19.355469 C 10.785156 19.511719 10.777344 19.683594 10.722656 19.839844 C 10.683594 19.875 10.660156 19.933594 10.679688 20.003906 C 10.71875 20.121094 10.789062 20.21875 10.882812 20.296875 " fill-opacity="1" fill-rule="nonzero"/><path fill="#000000" d="M 9.46875 23.714844 C 9.460938 23.714844 9.453125 23.71875 9.441406 23.71875 L 9.425781 23.71875 C 9.136719 23.777344 8.886719 23.34375 9.007812 23.101562 C 9.089844 22.941406 9.507812 22.910156 9.621094 23.011719 C 9.746094 23.121094 9.757812 23.226562 9.757812 23.386719 C 9.757812 23.558594 9.648438 23.710938 9.46875 23.714844 Z M 10.054688 23.003906 C 9.953125 22.804688 9.769531 22.640625 9.539062 22.625 C 9.324219 22.613281 9.070312 22.632812 8.886719 22.746094 C 8.578125 22.929688 8.601562 23.324219 8.722656 23.605469 C 8.847656 23.90625 9.148438 24.097656 9.46875 24.058594 C 9.742188 24.054688 9.886719 23.914062 10.042969 23.703125 C 10.15625 23.554688 10.136719 23.160156 10.054688 23.003906 " fill-opacity="1" fill-rule="nonzero"/><path fill="#000000" d="M 9.757812 16.890625 C 9.980469 16.882812 9.980469 17.226562 9.757812 17.234375 C 9.164062 17.25 8.695312 17.417969 8.148438 17.617188 C 7.671875 17.789062 7.378906 18.316406 7.28125 18.800781 C 7.238281 19.015625 6.90625 18.925781 6.949219 18.707031 C 7.035156 18.285156 7.324219 17.605469 7.75 17.410156 C 8.414062 17.105469 9.023438 16.910156 9.757812 16.890625 " fill-opacity="1" fill-rule="nonzero"/><path fill="#ffffff" d="M 9.757812 23.386719 C 9.757812 23.558594 9.648438 23.710938 9.46875 23.714844 C 9.460938 23.714844 9.453125 23.71875 9.441406 23.71875 L 9.425781 23.71875 C 9.136719 23.777344 8.886719 23.34375 9.007812 23.101562 C 9.089844 22.941406 9.507812 22.910156 9.621094 23.011719 C 9.746094 23.121094 9.757812 23.226562 9.757812 23.386719 " fill-opacity="1" fill-rule="nonzero"/><path fill="#e6e6e6" d="M 5.917969 24.207031 C 5.78125 24.277344 5.574219 24.289062 5.542969 24.5 C 5.496094 24.804688 5.304688 24.722656 5.046875 24.710938 C 4.898438 24.703125 4.445312 24.710938 4.445312 24.492188 C 4.4375 24.082031 4.148438 23.835938 3.902344 23.539062 C 3.808594 23.421875 3.183594 22.421875 3.582031 22.425781 C 3.59375 22.425781 3.601562 22.421875 3.605469 22.417969 C 3.625 22.449219 3.644531 22.480469 3.664062 22.511719 C 4.070312 23.101562 4.421875 23.871094 4.984375 24.324219 C 5.074219 24.394531 5.183594 24.363281 5.242188 24.296875 C 5.488281 24.257812 5.707031 24.222656 5.917969 24.207031 " fill-opacity="1" fill-rule="nonzero"/><path fill="#ffffff" d="M 13.085938 9.066406 C 13.261719 8.992188 13.371094 8.816406 13.523438 8.707031 C 13.699219 8.574219 13.769531 8.378906 13.894531 8.203125 C 14.023438 8.019531 13.722656 7.847656 13.597656 8.03125 C 13.5 8.167969 13.445312 8.339844 13.304688 8.441406 C 13.238281 8.492188 13.167969 8.539062 13.105469 8.597656 C 13.035156 8.664062 13.003906 8.730469 12.910156 8.769531 C 12.707031 8.859375 12.882812 9.15625 13.085938 9.066406 " fill-opacity="1" fill-rule="nonzero"/><path fill="#ffffff" d="M 13.371094 9.785156 C 13.628906 9.621094 13.773438 9.363281 13.9375 9.113281 C 14.039062 8.957031 14.160156 8.8125 14.273438 8.664062 C 14.40625 8.484375 14.496094 8.277344 14.609375 8.089844 C 14.726562 7.898438 14.429688 7.726562 14.3125 7.914062 C 14.15625 8.175781 14.023438 8.421875 13.839844 8.664062 C 13.636719 8.925781 13.484375 9.304688 13.199219 9.488281 C 13.011719 9.605469 13.183594 9.90625 13.371094 9.785156 " fill-opacity="1" fill-rule="nonzero"/><path fill="#ffffff" d="M 14.09375 10.296875 C 14.285156 9.929688 14.574219 9.585938 14.820312 9.257812 C 14.929688 9.109375 15.050781 8.96875 15.160156 8.820312 C 15.296875 8.636719 15.386719 8.417969 15.53125 8.238281 C 15.671875 8.070312 15.429688 7.824219 15.289062 7.996094 C 15.042969 8.296875 14.855469 8.648438 14.617188 8.960938 C 14.335938 9.328125 14.011719 9.710938 13.796875 10.121094 C 13.695312 10.320312 13.992188 10.492188 14.09375 10.296875 " fill-opacity="1" fill-rule="nonzero"/><path fill="#ffffff" d="M 14.839844 10.726562 C 15.074219 10.347656 15.304688 10.011719 15.492188 9.605469 C 15.683594 9.191406 15.894531 8.851562 16.222656 8.523438 C 16.378906 8.367188 16.132812 8.125 15.976562 8.28125 C 15.671875 8.585938 15.453125 8.898438 15.261719 9.285156 C 15.042969 9.734375 14.804688 10.128906 14.542969 10.550781 C 14.425781 10.742188 14.726562 10.914062 14.839844 10.726562 " fill-opacity="1" fill-rule="nonzero"/><path fill="#ffffff" d="M 15.804688 10.742188 C 15.878906 10.386719 16.171875 10.046875 16.371094 9.75 C 16.550781 9.484375 16.722656 9.207031 16.90625 8.949219 C 17.035156 8.765625 16.738281 8.59375 16.609375 8.773438 C 16.398438 9.074219 16.203125 9.386719 15.996094 9.691406 C 15.800781 9.980469 15.546875 10.304688 15.472656 10.652344 C 15.429688 10.867188 15.761719 10.960938 15.804688 10.742188 " fill-opacity="1" fill-rule="nonzero"/><path fill="#ffffff" d="M 16.726562 10.570312 C 16.824219 10.136719 17.105469 9.785156 17.367188 9.4375 C 17.5 9.257812 17.203125 9.085938 17.070312 9.261719 C 16.789062 9.636719 16.5 10.015625 16.394531 10.480469 C 16.34375 10.695312 16.675781 10.785156 16.726562 10.570312 " fill-opacity="1" fill-rule="nonzero"/><path fill="#ffffff" d="M 17.453125 10.410156 C 17.542969 10.265625 17.636719 10.121094 17.742188 9.988281 C 17.800781 9.914062 17.816406 9.816406 17.742188 9.742188 C 17.683594 9.683594 17.558594 9.671875 17.5 9.742188 C 17.375 9.902344 17.261719 10.066406 17.15625 10.238281 C 17.039062 10.425781 17.339844 10.601562 17.453125 10.410156 " fill-opacity="1" fill-rule="nonzero"/><path fill="#ffffff" d="M 6.367188 6.113281 C 7.132812 5.585938 8.28125 5.210938 9.195312 5.015625 C 9.695312 4.90625 10.15625 4.726562 10.664062 4.625 C 11.320312 4.5 11.933594 4.476562 12.625 4.476562 C 12.796875 4.476562 12.796875 4.132812 12.625 4.132812 C 11.417969 4.132812 10.398438 4.261719 9.292969 4.609375 C 8.269531 4.933594 7.085938 5.199219 6.183594 5.816406 C 6.003906 5.941406 6.183594 6.242188 6.367188 6.113281 " fill-opacity="1" fill-rule="nonzero"/><path fill="#ffffff" d="M 13.140625 4.476562 C 13.140625 4.476562 13.347656 4.472656 13.429688 4.507812 C 13.511719 4.550781 13.628906 4.535156 13.679688 4.449219 C 13.722656 4.371094 13.679688 4.253906 13.59375 4.210938 C 13.453125 4.144531 13.3125 4.132812 13.140625 4.132812 C 12.96875 4.132812 12.96875 4.476562 13.140625 4.476562 C 13.140625 4.476562 12.96875 4.476562 13.140625 4.476562 " fill-opacity="1" fill-rule="nonzero"/><path fill="#ffffff" d="M 14.546875 4.734375 C 15.433594 4.789062 16.242188 5.339844 17.046875 5.683594 C 17.246094 5.773438 17.421875 5.476562 17.21875 5.386719 C 16.335938 5.007812 15.523438 4.449219 14.546875 4.390625 C 14.324219 4.375 14.328125 4.71875 14.546875 4.734375 " fill-opacity="1" fill-rule="nonzero"/><path fill="#ffffff" d="M 5.46875 6.359375 C 4.582031 7.410156 3.515625 8.148438 2.828125 9.378906 C 2.511719 9.941406 2.351562 10.578125 2.058594 11.152344 C 1.808594 11.640625 1.597656 12.292969 1.597656 12.808594 C 1.597656 12.980469 1.945312 12.980469 1.945312 12.808594 C 1.945312 11.777344 2.675781 10.609375 3.070312 9.664062 C 3.621094 8.34375 4.828125 7.636719 5.710938 6.59375 C 5.855469 6.425781 5.613281 6.191406 5.46875 6.359375 " fill-opacity="1" fill-rule="nonzero"/><path fill="#ffffff" d="M 1.480469 14.023438 C 1.378906 14.167969 1.394531 14.34375 1.398438 14.507812 C 1.402344 14.730469 1.746094 14.734375 1.742188 14.507812 C 1.742188 14.40625 1.714844 14.285156 1.777344 14.195312 C 1.902344 14.011719 1.601562 13.839844 1.480469 14.023438 " fill-opacity="1" fill-rule="nonzero"/><path fill="#ffffff" d="M 4.761719 22.480469 C 4.511719 21.890625 4.125 21.28125 3.816406 20.714844 C 3.429688 20.007812 3.082031 19.171875 2.886719 18.390625 C 2.832031 18.175781 2.5 18.265625 2.554688 18.484375 C 2.730469 19.191406 3.019531 19.808594 3.316406 20.472656 C 3.648438 21.222656 4.148438 21.910156 4.464844 22.652344 C 4.554688 22.855469 4.847656 22.679688 4.761719 22.480469 " fill-opacity="1" fill-rule="nonzero"/><path fill="#ffffff" d="M 2.625 17.589844 C 2.601562 17.460938 2.578125 17.335938 2.574219 17.203125 C 2.574219 16.984375 2.226562 16.984375 2.230469 17.203125 C 2.234375 17.363281 2.261719 17.523438 2.292969 17.679688 C 2.3125 17.773438 2.421875 17.824219 2.507812 17.800781 C 2.601562 17.773438 2.644531 17.679688 2.625 17.589844 " fill-opacity="1" fill-rule="nonzero"/><path fill="#ffffff" d="M 12.171875 8.953125 C 12.355469 8.765625 12.480469 8.53125 12.628906 8.316406 C 12.757812 8.136719 12.457031 7.964844 12.332031 8.144531 C 12.199219 8.335938 12.089844 8.542969 11.929688 8.710938 C 11.773438 8.871094 12.019531 9.113281 12.171875 8.953125 " fill-opacity="1" fill-rule="nonzero"/><path fill="#ffffff" d="M 11.589844 8.832031 C 11.585938 8.886719 11.605469 8.828125 11.613281 8.8125 C 11.628906 8.792969 11.640625 8.769531 11.652344 8.746094 C 11.761719 8.554688 11.464844 8.378906 11.355469 8.574219 C 11.304688 8.664062 11.257812 8.730469 11.246094 8.832031 C 11.234375 8.925781 11.332031 9.003906 11.417969 9.003906 C 11.519531 9.003906 11.578125 8.925781 11.589844 8.832031 " fill-opacity="1" fill-rule="nonzero"/><path fill="#ffffff" d="M 7.738281 19.34375 C 7.921875 18.867188 8.050781 18.382812 8.503906 18.070312 C 8.9375 17.773438 9.523438 17.863281 10.039062 17.863281 C 10.210938 17.863281 10.210938 17.519531 10.039062 17.519531 C 9.351562 17.519531 8.859375 17.460938 8.332031 17.773438 C 7.78125 18.097656 7.625 18.703125 7.410156 19.25 C 7.332031 19.457031 7.65625 19.546875 7.738281 19.34375 " fill-opacity="1" fill-rule="nonzero"/><path fill="#ffffff" d="M 10.519531 18.015625 C 10.582031 18.074219 10.652344 18.117188 10.726562 18.15625 C 10.925781 18.253906 11.101562 17.957031 10.902344 17.859375 C 10.851562 17.832031 10.804688 17.808594 10.765625 17.769531 C 10.601562 17.617188 10.359375 17.863281 10.519531 18.015625 " fill-opacity="1" fill-rule="nonzero"/><path fill="#ffffff" d="M 8.023438 21.707031 C 8.199219 21.9375 8.472656 22.082031 8.722656 22.21875 C 9.03125 22.386719 9.320312 22.4375 9.667969 22.421875 C 9.890625 22.414062 9.890625 22.066406 9.667969 22.078125 C 9.371094 22.089844 9.167969 22.042969 8.894531 21.921875 C 8.71875 21.839844 8.441406 21.691406 8.324219 21.53125 C 8.191406 21.355469 7.890625 21.527344 8.023438 21.707031 " fill-opacity="1" fill-rule="nonzero"/><path fill="#ffffff" d="M 10.242188 22.421875 C 10.371094 22.417969 10.484375 22.371094 10.601562 22.328125 C 10.691406 22.300781 10.75 22.214844 10.722656 22.117188 C 10.699219 22.03125 10.601562 21.96875 10.511719 22 C 10.421875 22.027344 10.335938 22.074219 10.242188 22.078125 C 10.019531 22.085938 10.019531 22.429688 10.242188 22.421875 " fill-opacity="1" fill-rule="nonzero"/></svg>